<?xml version="1.0" encoding="UTF-8" standalone="no"?>
<!-- Created with Inkscape (http://www.inkscape.org/) -->

<svg
   xmlns:dc="http://purl.org/dc/elements/1.1/"
   xmlns:cc="http://creativecommons.org/ns#"
   xmlns:rdf="http://www.w3.org/1999/02/22-rdf-syntax-ns#"
   xmlns:svg="http://www.w3.org/2000/svg"
   xmlns="http://www.w3.org/2000/svg"
   xmlns:sodipodi="http://sodipodi.sourceforge.net/DTD/sodipodi-0.dtd"
   xmlns:inkscape="http://www.inkscape.org/namespaces/inkscape"
   id="svg35331"
   version="1.1"
   inkscape:version="0.48.4 r9939"
   width="397.5"
   height="203.75"
   xml:space="preserve"
   sodipodi:docname="minus.eps"><sodipodi:namedview
     pagecolor="#ffffff"
     bordercolor="#666666"
     borderopacity="1"
     objecttolerance="10"
     gridtolerance="10"
     guidetolerance="10"
     inkscape:pageopacity="0"
     inkscape:pageshadow="2"
     inkscape:window-width="927"
     inkscape:window-height="1148"
     id="namedview35333"
     showgrid="false"
     inkscape:zoom="2.0427673"
     inkscape:cx="237.14757"
     inkscape:cy="93.938596"
     inkscape:window-x="65"
     inkscape:window-y="24"
     inkscape:window-maximized="0"
     inkscape:current-layer="g35341" /><metadata
     id="metadata35337"><rdf:RDF><cc:Work
         rdf:about=""><dc:format>image/svg+xml</dc:format><dc:type
           rdf:resource="http://purl.org/dc/dcmitype/StillImage" /><dc:title></dc:title></cc:Work></rdf:RDF></metadata><defs
     id="defs35335"><clipPath
       clipPathUnits="userSpaceOnUse"
       id="clipPath35347"><path
         d="m 0,10 2600,0 0,1610 L 0,1620 0,10 z"
         id="path35349" /></clipPath><clipPath
       clipPathUnits="userSpaceOnUse"
       id="clipPath35391"><path
         d="m 0,690 120,0 0,120 -120,0 0,-120 z"
         id="path35393" /></clipPath><clipPath
       clipPathUnits="userSpaceOnUse"
       id="clipPath35403"><path
         d="m 0,10 2600,0 0,1610 L 0,1620 0,10 z"
         id="path35405" /></clipPath><clipPath
       clipPathUnits="userSpaceOnUse"
       id="clipPath35419"><path
         d="m 610,690 130,0 0,120 -130,0 0,-120 z"
         id="path35421" /></clipPath><clipPath
       clipPathUnits="userSpaceOnUse"
       id="clipPath35431"><path
         d="m 0,10 2600,0 0,1610 L 0,1620 0,10 z"
         id="path35433" /></clipPath><clipPath
       clipPathUnits="userSpaceOnUse"
       id="clipPath35455"><path
         d="m 1880,690 80,0 0,120 -80,0 0,-120 z"
         id="path35457" /></clipPath><clipPath
       clipPathUnits="userSpaceOnUse"
       id="clipPath35465"><path
         d="m 0,10 2600,0 0,1610 L 0,1620 0,10 z"
         id="path35467" /></clipPath><clipPath
       clipPathUnits="userSpaceOnUse"
       id="clipPath35481"><path
         d="m 2500,690 80,0 0,120 -80,0 0,-120 z"
         id="path35483" /></clipPath><clipPath
       clipPathUnits="userSpaceOnUse"
       id="clipPath35491"><path
         d="m 0,10 2600,0 0,1610 L 0,1620 0,10 z"
         id="path35493" /></clipPath><clipPath
       clipPathUnits="userSpaceOnUse"
       id="clipPath35507"><path
         d="m 1080,70 210,0 0,120 -210,0 0,-120 z"
         id="path35509" /></clipPath><clipPath
       clipPathUnits="userSpaceOnUse"
       id="clipPath35523"><path
         d="m 0,10 2600,0 0,1610 L 0,1620 0,10 z"
         id="path35525" /></clipPath><clipPath
       clipPathUnits="userSpaceOnUse"
       id="clipPath35539"><path
         d="m 1080,290 210,0 0,120 -210,0 0,-120 z"
         id="path35541" /></clipPath><clipPath
       clipPathUnits="userSpaceOnUse"
       id="clipPath35555"><path
         d="m 0,10 2600,0 0,1610 L 0,1620 0,10 z"
         id="path35557" /></clipPath><clipPath
       clipPathUnits="userSpaceOnUse"
       id="clipPath35571"><path
         d="m 1080,520 210,0 0,120 -210,0 0,-120 z"
         id="path35573" /></clipPath><clipPath
       clipPathUnits="userSpaceOnUse"
       id="clipPath35587"><path
         d="m 0,10 2600,0 0,1610 L 0,1620 0,10 z"
         id="path35589" /></clipPath><clipPath
       clipPathUnits="userSpaceOnUse"
       id="clipPath35611"><path
         d="m 1130,980 160,0 0,120 -160,0 0,-120 z"
         id="path35613" /></clipPath><clipPath
       clipPathUnits="userSpaceOnUse"
       id="clipPath35625"><path
         d="m 0,10 2600,0 0,1610 L 0,1620 0,10 z"
         id="path35627" /></clipPath><clipPath
       clipPathUnits="userSpaceOnUse"
       id="clipPath35641"><path
         d="m 1130,1210 160,0 0,120 -160,0 0,-120 z"
         id="path35643" /></clipPath><clipPath
       clipPathUnits="userSpaceOnUse"
       id="clipPath35655"><path
         d="m 0,10 2600,0 0,1610 L 0,1620 0,10 z"
         id="path35657" /></clipPath><clipPath
       clipPathUnits="userSpaceOnUse"
       id="clipPath35671"><path
         d="m 1130,1440 160,0 0,120 -160,0 0,-120 z"
         id="path35673" /></clipPath><clipPath
       clipPathUnits="userSpaceOnUse"
       id="clipPath35685"><path
         d="m 0,10 2600,0 0,1610 L 0,1620 0,10 z"
         id="path35687" /></clipPath><clipPath
       clipPathUnits="userSpaceOnUse"
       id="clipPath35699"><path
         d="m 2700,770 160,0 0,90 -160,0 0,-90 z"
         id="path35701" /></clipPath></defs><g
     id="g35339"
     inkscape:groupmode="layer"
     inkscape:label="ink_ext_XXXXXX"
     transform="matrix(1.25,0,0,-1.25,0,203.75)"><g
       id="g35341"
       transform="scale(0.1,0.1)"><g
         id="g35343"><g
           id="g35345"
           clip-path="url(#clipPath35347)"><path
             d="m 53.5703,811.66 50.9687,0"
             style="fill:none;stroke:#0000ff;stroke-opacity:1;stroke-width:11.52;stroke-linecap:square;stroke-linejoin:miter;stroke-miterlimit:3.25;stroke-dasharray:none"
             id="path35351" /><path
             d="m 108.949,811.66 21.481,0 0.832,-0.012 1.648,0 0.828,-0.007 0.821,-0.02 0.832,-0.012 0.828,-0.031 0.82,-0.039 0.832,-0.051 0.828,-0.066 0.821,-0.094 0.832,-0.117 0.82,-0.152 0.828,-0.2 0.828,-0.238 0.82,-0.301 0.832,-0.371 0.829,-0.437 0.82,-0.543 0.832,-0.641 0.82,-0.75 0.828,-0.879 0.832,-1.019 0.821,-1.18 0.828,-1.34 0.82,-1.539 0.828,-1.73 0.832,-1.95 0.821,-2.171 0.828,-2.43 0.769,-2.488 0.774,-2.731 0.769,-2.973 0.778,-3.226 0.769,-3.492 0.774,-3.77 1.539,-8.371 0.769,-4.617 0.77,-4.922 1.55,-10.73 0.77,-5.821 0.77,-6.121 1.539,-13.137 0.769,-7.019 0.781,-7.301 1.539,-15.449 3.082,-34.024 0.782,-9.089 0.769,-9.297 1.539,-19.16 3.09,-40.122 0.77,-10.289 0.769,-10.359 1.539,-20.844 3.09,-41.558 0.774,-10.231 0.769,-10.129 1.539,-19.851 3.09,-37.481 0.77,-8.789 0.769,-8.5 1.551,-16.121 0.769,-7.566 0.77,-7.223 1.543,-13.328 0.769,-6.082 0.77,-5.668 0.777,-5.25 0.774,-4.813 0.769,-4.359 0.77,-3.91 0.769,-3.438 0.77,-2.972 0.762,-2.449 0.757,-1.981 0.75,-1.5 0.762,-1.039 0.75,-0.551 0.758,-0.078 0.762,0.41 0.75,0.879 0.757,1.352 0.762,1.828 0.75,2.301 0.762,2.757 0.75,3.223 0.758,3.668 0.761,4.109 0.75,4.551 0.758,4.973 0.762,5.367 1.508,11.949 0.761,6.543 0.75,6.891 1.508,14.808 0.762,7.879 0.762,8.172 1.508,17.149 3.031,37.011 0.75,9.7 0.758,9.839 1.511,20.008 3.032,40.762 0.75,10.23 0.757,10.2 1.512,20.242 3.027,39.328 0.75,9.488 0.762,9.321 1.512,18.07 0.758,8.723 0.75,8.5 1.519,16.277 0.75,7.762 0.762,7.5 1.508,14.179 0.761,6.66 0.75,6.391 1.52,11.899 0.82,5.968 0.821,5.621 0.82,5.289 0.82,4.961 0.821,4.621 0.82,4.301 1.637,7.668 0.82,3.379 0.82,3.102 0.821,2.82 0.82,2.559 0.82,2.312 0.82,2.07 0.821,1.86 0.82,1.64 0.82,1.457 0.821,1.282 0.828,1.109 0.82,0.973 0.82,0.828 0.821,0.711 0.82,0.597 0.82,0.5 0.821,0.422 0.816,0.34 0.82,0.289 0.821,0.223 0.82,0.18 0.82,0.148 0.821,0.109 0.82,0.082 0.82,0.059 0.821,0.051 0.82,0.039 0.82,0.019 0.821,0.02 0.82,0.012 0.816,0.007 0.821,0 0.82,0.012 25.383,0"
             style="fill:none;stroke:#0000ff;stroke-opacity:1;stroke-width:11.52;stroke-linecap:square;stroke-linejoin:miter;stroke-miterlimit:3.25;stroke-dasharray:none"
             id="path35353" /><path
             d="m 317.762,811.66 97.386,0"
             style="fill:none;stroke:#0000ff;stroke-opacity:1;stroke-width:11.52;stroke-linecap:square;stroke-linejoin:miter;stroke-miterlimit:3.25;stroke-dasharray:none"
             id="path35355" /><path
             d="m 420.648,811.66 21.18,0 0.813,0.012 0.82,0 0.809,0.008 0.82,0.011 0.808,0.02 0.821,0.027 0.812,0.032 0.821,0.05 0.808,0.059 0.809,0.09 0.82,0.109 0.813,0.141 0.82,0.191 0.808,0.219 0.821,0.281 0.808,0.352 0.821,0.418 0.808,0.5 0.821,0.59 0.812,0.71 0.82,0.821 0.809,0.961 0.762,1.019 0.758,1.16 0.761,1.321 0.758,1.468 0.762,1.649 0.758,1.84 0.761,2.019 0.758,2.242 0.762,2.461 0.762,2.68 0.757,2.918 0.762,3.172 0.758,3.418 0.762,3.691 1.519,8.192 0.762,4.519 0.758,4.797 1.519,10.473 0.762,5.679 0.758,5.969 1.519,12.813 0.762,6.84 0.762,7.117 1.519,15.062 3.039,33.188 0.758,8.883 0.762,9.089 1.519,18.731 3.039,39.288 6.082,81.78 0.758,10.13 0.762,10.05 1.52,19.73 0.761,9.65 0.75,9.48 1.52,18.35 0.758,8.84 0.761,8.58 1.52,16.33 0.762,7.72 0.757,7.38 1.52,13.74 0.832,6.83 0.82,6.38 0.828,5.91 0.821,5.42 0.82,4.91 0.828,4.41 0.82,3.87 0.832,3.34 0.821,2.79 0.82,2.24 0.828,1.68 0.821,1.11 0.832,0.55 0.82,-0.02 0.816,-0.59 0.832,-1.15 0.821,-1.72 0.828,-2.27 0.82,-2.83 0.82,-3.38 0.832,-3.91 0.821,-4.43 0.828,-4.95 0.82,-5.46 0.82,-5.93 0.829,-6.41 1.652,-14.17 0.82,-7.72 0.821,-8.11 1.648,-17.33 0.828,-9.17 0.82,-9.48 1.653,-19.78 3.289,-42.13 6.601,-88.59 0.821,-10.96 0.816,-10.86 1.652,-21.29 3.301,-40.309 0.821,-9.492 0.828,-9.231 1.64,-17.59 0.828,-8.339 0.821,-8.028 1.652,-15.062 0.77,-6.578 0.769,-6.27 1.539,-11.66 0.77,-5.371 0.769,-5.078 1.532,-9.274 0.769,-4.199 0.77,-3.918 0.769,-3.652 0.774,-3.379 0.769,-3.11 0.77,-2.871 0.769,-2.629 0.77,-2.402 0.769,-2.18 0.77,-1.968 0.769,-1.782 0.762,-1.589 0.77,-1.418 0.769,-1.25 0.77,-1.11 0.769,-0.98 0.774,-0.84 0.769,-0.742 0.77,-0.629 0.769,-0.539 0.77,-0.449 0.769,-0.391 0.77,-0.32 0.769,-0.262 0.762,-0.219 0.77,-0.172 0.769,-0.136 0.77,-0.114 0.769,-0.09 0.774,-0.058 0.769,-0.051 0.77,-0.039 0.769,-0.031 0.77,-0.02 0.769,-0.008 0.77,-0.011 0.769,-0.008 0.774,0 0.758,-0.012 25.339,0"
             style="fill:none;stroke:#0000ff;stroke-opacity:1;stroke-width:11.52;stroke-linecap:square;stroke-linejoin:miter;stroke-miterlimit:3.25;stroke-dasharray:none"
             id="path35357" /><path
             d="m 623.93,811.66 101.832,0"
             style="fill:none;stroke:#0000ff;stroke-opacity:1;stroke-width:11.52;stroke-linecap:square;stroke-linejoin:miter;stroke-miterlimit:3.25;stroke-dasharray:none"
             id="path35359" /><path
             d="m 735.41,811.66 16.801,0 0.758,-0.012 0.761,0 0.77,-0.007 0.762,-0.012 0.769,-0.008 0.758,-0.019 0.762,-0.032 0.769,-0.031 0.758,-0.051 0.762,-0.058 0.832,-0.09 0.828,-0.121 0.828,-0.149 0.82,-0.191 0.832,-0.238 0.829,-0.289 0.832,-0.372 0.82,-0.441 0.828,-0.527 0.832,-0.633 0.828,-0.738 0.821,-0.879 0.832,-1.012 0.828,-1.172 0.832,-1.34 0.816,-1.519 0.832,-1.731 0.828,-1.937 0.832,-2.16 0.821,-2.422 0.828,-2.668 0.832,-2.942 0.828,-3.218 0.82,-3.52 0.832,-3.832 0.828,-4.141 0.832,-4.468 0.821,-4.801 0.828,-5.129 0.832,-5.48 1.648,-12 0.828,-6.508 0.832,-6.871 1.661,-14.75 3.308,-33.43 0.821,-9.109 0.832,-9.391 1.66,-19.563 3.308,-41.679 0.821,-10.84 0.828,-10.957 1.66,-22.192 3.312,-44.71 0.821,-11.098 0.828,-11.012 1.66,-21.66 3.309,-41.059 0.812,-9.48 0.809,-9.18 1.629,-17.422 0.812,-8.187 0.809,-7.813 1.629,-14.418 0.812,-6.57 0.809,-6.133 0.808,-5.656 0.821,-5.184 0.812,-4.679 0.809,-4.18 0.808,-3.668 0.821,-3.141 0.812,-2.609 0.809,-2.082 0.808,-1.519 0.821,-0.981 0.812,-0.418 0.809,0.117 0.808,0.684 0.821,1.226 0.812,1.782 0.809,2.32 0.808,2.852 0.821,3.386 0.812,3.903 0.809,4.418 0.808,4.91 0.813,5.402 0.82,5.879 0.809,6.332 1.621,13.957 0.82,7.609 0.809,7.981 1.621,17.051 0.82,9.031 0.809,9.32 1.621,19.438 3.25,41.441 0.82,10.738 0.809,10.84 1.621,21.883 3.25,43.848 0.82,10.84 0.809,10.742 1.621,21.09 3.25,40.058 0.758,8.84 0.761,8.609 1.508,16.524 0.762,7.887 0.762,7.632 1.507,14.438 0.762,6.801 0.758,6.519 1.519,12.16 0.75,5.653 0.762,5.347 1.52,9.852 0.75,4.488 0.761,4.211 0.758,3.942 0.762,3.668 0.75,3.41 0.758,3.148 1.519,5.582 0.762,2.449 0.75,2.231 0.762,2.019 0.758,1.832 0.761,1.637 0.75,1.473 0.758,1.308 0.762,1.172 0.758,1.02 0.75,0.89 0.761,0.778 0.758,0.679 0.762,0.582 0.762,0.489 0.75,0.422 0.757,0.347 0.762,0.293 0.758,0.239 0.75,0.199 0.762,0.16 0.757,0.133 0.762,0.097 0.75,0.082 0.762,0.059 0.758,0.039 0.761,0.039 0.75,0.024 0.758,0.019 0.762,0.008 0.758,0.012 0.761,0.007 0.75,0 0.758,0.012 25.231,0"
             style="fill:none;stroke:#0000ff;stroke-opacity:1;stroke-width:11.52;stroke-linecap:square;stroke-linejoin:miter;stroke-miterlimit:3.25;stroke-dasharray:none"
             id="path35361" /><path
             d="m 939.59,811.66 96.78,0"
             style="fill:none;stroke:#0000ff;stroke-opacity:1;stroke-width:11.52;stroke-linecap:square;stroke-linejoin:miter;stroke-miterlimit:3.25;stroke-dasharray:none"
             id="path35363" /><path
             d="m 1041.58,811.66 21.61,0 0.83,0.012 0.83,0 0.83,0.008 0.83,0.019 0.83,0.02 0.83,0.031 0.82,0.031 0.82,0.059 0.81,0.07 0.82,0.09 0.81,0.121 0.82,0.16 0.82,0.188 0.81,0.242 0.82,0.301 0.81,0.367 0.82,0.441 0.82,0.539 0.81,0.629 0.82,0.742 0.81,0.86 0.82,1.012 0.82,1.148 0.81,1.32 0.82,1.5 0.81,1.7 0.82,1.902 0.82,2.129 0.81,2.359 0.82,2.61 0.81,2.878 0.82,3.153 0.82,3.429 0.81,3.731 0.82,4.039 0.81,4.352 1.64,9.668 0.81,5.332 0.82,5.668 1.63,12.351 0.82,6.68 0.81,7.008 1.63,15.019 0.82,7.992 0.82,8.289 1.63,17.481 3.26,38.148 0.82,10.114 0.81,10.298 1.64,21.09 3.26,43.54 6.53,87.05 0.76,9.69 0.76,9.51 1.52,18.43 0.76,8.88 0.77,8.62 1.52,16.42 0.76,7.75 0.76,7.44 0.76,7.09 0.76,6.73 0.76,6.37 0.77,5.97 1.52,10.74 0.76,4.74 0.76,4.31 0.76,3.86 0.76,3.41 0.76,2.95 0.77,2.48 0.76,2 0.76,1.53 0.76,1.05 0.76,0.57 0.76,0.08 0.76,-0.41 0.76,-0.89 0.77,-1.37 0.76,-1.85 0.76,-2.33 0.76,-2.79 0.76,-3.26 0.76,-3.71 0.76,-4.16 0.76,-4.6 0.77,-5.03 1.52,-11.29 0.76,-6.23 0.76,-6.62 1.52,-14.3 0.76,-7.65 0.77,-7.96 1.52,-16.8 0.76,-8.8 0.76,-9.03 1.52,-18.71 3.05,-39.38 6.09,-81.95 0.82,-10.98 0.83,-10.88 1.65,-21.34 3.3,-40.4 0.83,-9.519 0.82,-9.25 1.65,-17.633 0.83,-8.359 0.82,-8.047 1.65,-15.102 0.83,-7.05 0.82,-6.7 0.83,-6.359 0.83,-6.012 0.82,-5.668 0.83,-5.32 1.65,-9.641 0.82,-4.332 0.83,-4 0.82,-3.699 0.83,-3.391 0.82,-3.109 0.83,-2.828 0.82,-2.563 0.83,-2.308 0.83,-2.078 0.82,-1.852 0.83,-1.64 0.82,-1.45 0.83,-1.281 0.82,-1.098 0.83,-0.961 0.82,-0.82 0.83,-0.711 0.82,-0.59 0.83,-0.488 0.82,-0.422 0.83,-0.34 0.82,-0.269 0.83,-0.219 0.83,-0.18 0.82,-0.14 0.83,-0.102 0.82,-0.078 0.83,-0.062 0.82,-0.047 0.83,-0.032 0.82,-0.031 0.83,-0.008 0.82,-0.011 0.83,-0.008 0.82,0 0.83,-0.012 25.19,0"
             style="fill:none;stroke:#0000ff;stroke-opacity:1;stroke-width:11.52;stroke-linecap:square;stroke-linejoin:miter;stroke-miterlimit:3.25;stroke-dasharray:none"
             id="path35365" /><path
             d="m 1246.6,811.66 100.38,0"
             style="fill:none;stroke:#0000ff;stroke-opacity:1;stroke-width:11.52;stroke-linecap:square;stroke-linejoin:miter;stroke-miterlimit:3.25;stroke-dasharray:none"
             id="path35367" /><path
             d="m 1349.12,811.66 24.47,0 0.77,-0.012 0.76,0 0.77,-0.007 0.76,-0.012 0.77,-0.008 0.76,-0.019 0.77,-0.032 0.76,-0.039 0.77,-0.051 0.76,-0.07 0.77,-0.09 0.76,-0.109 0.77,-0.141 0.76,-0.172 0.77,-0.218 0.76,-0.258 0.77,-0.32 0.76,-0.383 0.77,-0.449 0.76,-0.54 0.77,-0.621 0.76,-0.73 0.77,-0.84 0.76,-0.969 0.76,-1.101 0.77,-1.239 0.76,-1.402 0.77,-1.578 0.76,-1.75 0.77,-1.949 0.76,-2.153 0.77,-2.367 0.76,-2.601 0.77,-2.828 0.76,-3.082 0.77,-3.329 1.53,-7.472 0.76,-4.149 0.77,-4.429 1.53,-9.719 0.76,-5.313 0.77,-5.597 1.53,-12.09 0.76,-6.492 0.77,-6.782 1.53,-14.418 3.05,-32.082 0.77,-8.636 0.76,-8.871 1.53,-18.371 3.06,-38.821 0.83,-10.89 0.83,-11.008 1.66,-22.262 3.31,-44.777 0.83,-11.102 0.83,-10.988 1.66,-21.602 3.32,-40.871 0.83,-9.57 0.82,-9.27 1.66,-17.507 0.83,-8.211 0.83,-7.801 1.66,-14.32 0.83,-6.489 0.83,-6.011 0.82,-5.52 0.83,-5.012 0.83,-4.488 0.83,-3.961 0.83,-3.418 0.83,-2.871 0.83,-2.309 0.83,-1.742 0.83,-1.168 0.83,-0.601 0.82,-0.02 0.83,0.551 0.83,1.121 0.83,1.699 0.83,2.258 0.83,2.82 0.83,3.371 0.83,3.918 0.83,4.454 0.82,4.968 0.83,5.469 0.83,5.973 0.83,6.449 0.83,6.898 1.66,15.121 0.83,8.168 0.83,8.551 1.65,18.153 0.83,9.546 0.83,9.832 1.66,20.418 3.32,43.09 0.81,10.891 0.81,10.949 1.63,22.004 3.26,43.707 0.81,10.723 0.81,10.597 1.63,20.719 3.26,39 0.81,9.141 0.81,8.871 1.63,16.871 0.82,7.98 0.81,7.661 1.63,14.347 0.81,6.68 0.81,6.34 0.82,6.011 0.81,5.668 0.82,5.34 0.81,5 1.63,9.043 0.81,4.047 0.81,3.742 0.82,3.45 0.81,3.16 0.82,2.89 0.81,2.629 0.81,2.371 0.82,2.141 0.81,1.918 0.81,1.711 0.82,1.519 0.81,1.332 0.82,1.168 0.81,1.02 0.81,0.871 0.82,0.762 0.81,0.636 0.82,0.543 0.81,0.45 0.81,0.371 0.82,0.308 0.81,0.25 0.81,0.2 0.82,0.16 0.81,0.121 0.82,0.097 0.81,0.071 0.81,0.062 0.82,0.039 0.81,0.032 0.81,0.019 0.82,0.008 0.76,0.012 0.76,0.007 0.76,0 0.75,0.012 25.26,0"
             style="fill:none;stroke:#0000ff;stroke-opacity:1;stroke-width:11.52;stroke-linecap:square;stroke-linejoin:miter;stroke-miterlimit:3.25;stroke-dasharray:none"
             id="path35369" /><path
             d="m 1556.51,811.66 101.07,0"
             style="fill:none;stroke:#0000ff;stroke-opacity:1;stroke-width:11.52;stroke-linecap:square;stroke-linejoin:miter;stroke-miterlimit:3.25;stroke-dasharray:none"
             id="path35371" /><path
             d="m 1664.29,811.66 19.83,0 0.75,0.012 0.76,0 0.75,0.008 0.75,0.011 0.76,0.008 0.75,0.02 0.75,0.031 0.76,0.031 0.75,0.047 0.75,0.063 0.76,0.078 0.75,0.101 0.75,0.129 0.76,0.16 0.75,0.2 0.75,0.242 0.76,0.289 0.75,0.359 0.75,0.41 0.76,0.5 0.75,0.582 0.75,0.668 0.76,0.782 0.75,0.89 0.75,1.008 0.76,1.16 0.75,1.301 0.75,1.461 0.75,1.629 0.76,1.808 0.75,2.012 0.75,2.211 0.76,2.418 0.75,2.641 0.75,2.879 0.76,3.121 1.5,7 0.76,3.898 0.75,4.16 1.51,9.172 0.75,5.012 0.75,5.289 1.51,11.449 0.75,6.16 0.76,6.442 1.5,13.718 3.02,30.668 0.81,9.012 0.82,9.281 1.64,19.321 3.27,41.138 6.53,87.58 0.82,10.97 0.82,10.89 1.63,21.44 0.82,10.5 0.82,10.31 1.63,19.96 0.82,9.61 0.82,9.31 1.63,17.69 0.82,8.33 0.82,7.95 1.63,14.7 0.82,6.7 0.82,6.26 0.81,5.79 0.82,5.3 0.82,4.82 0.82,4.3 0.81,3.78 0.82,3.26 0.82,2.71 0.82,2.17 0.81,1.62 0.82,1.07 0.82,0.51 0.82,-0.06 0.81,-0.61 0.82,-1.16 0.82,-1.73 0.82,-2.27 0.81,-2.81 0.82,-3.35 0.82,-3.88 0.81,-4.4 0.82,-4.91 0.82,-5.39 0.82,-5.88 0.81,-6.34 1.64,-14 0.82,-7.63 0.81,-8.03 1.64,-17.13 0.76,-8.45 0.76,-8.72 1.53,-18.16 3.05,-38.63 6.1,-81.82 0.76,-10.25 0.77,-10.18 1.52,-20.09 3.05,-38.589 0.76,-9.211 0.77,-9.02 1.52,-17.378 3.05,-31.801 0.77,-7.281 0.76,-7 1.52,-13.129 0.77,-6.129 0.76,-5.84 1.52,-10.781 0.77,-4.961 0.76,-4.66 0.76,-4.379 0.76,-4.09 0.77,-3.821 0.76,-3.55 1.52,-6.328 0.77,-2.793 0.76,-2.559 0.76,-2.34 0.77,-2.121 0.76,-1.918 0.76,-1.73 0.76,-1.551 0.77,-1.391 0.76,-1.219 0.76,-1.082 0.76,-0.949 0.77,-0.828 0.76,-0.723 0.76,-0.609 0.76,-0.527 0.77,-0.442 0.82,-0.41 0.83,-0.332 0.83,-0.269 0.82,-0.207 0.83,-0.18 0.83,-0.133 0.82,-0.098 0.83,-0.082 0.83,-0.058 0.82,-0.039 0.83,-0.043 0.83,-0.02 0.82,-0.008 0.83,-0.011 0.83,-0.008 0.82,0 0.83,-0.012 25.08,0"
             style="fill:none;stroke:#0000ff;stroke-opacity:1;stroke-width:11.52;stroke-linecap:square;stroke-linejoin:miter;stroke-miterlimit:3.25;stroke-dasharray:none"
             id="path35373" /><path
             d="m 1866.43,811.66 101.76,0"
             style="fill:none;stroke:#0000ff;stroke-opacity:1;stroke-width:11.52;stroke-linecap:square;stroke-linejoin:miter;stroke-miterlimit:3.25;stroke-dasharray:none"
             id="path35375" /><path
             d="m 1976.67,811.66 18.06,0 0.82,-0.012 0.82,0 0.83,-0.007 0.82,-0.012 0.82,-0.02 0.82,-0.019 0.82,-0.039 0.82,-0.039 0.82,-0.071 0.82,-0.082 0.82,-0.109 0.82,-0.141 0.82,-0.179 0.83,-0.231 0.82,-0.277 0.82,-0.344 0.82,-0.418 0.82,-0.5 0.82,-0.601 0.82,-0.707 0.82,-0.832 0.82,-0.961 0.82,-1.11 0.82,-1.277 0.83,-1.453 0.82,-1.649 0.82,-1.851 0.82,-2.078 0.82,-2.301 0.82,-2.559 0.82,-2.82 0.82,-3.102 0.82,-3.379 0.82,-3.679 0.83,-3.981 0.82,-4.3 0.82,-4.629 0.82,-4.95 0.82,-5.293 0.82,-5.628 1.64,-12.29 0.77,-6.199 0.76,-6.492 1.54,-13.867 3.06,-31.07 0.77,-8.422 0.76,-8.649 1.54,-17.992 3.06,-38.25 0.77,-9.937 0.76,-10.071 1.54,-20.41 3.06,-41.383 6.13,-80.277 0.77,-9.383 0.76,-9.168 1.53,-17.609 0.77,-8.41 0.77,-8.11 1.53,-15.269 0.77,-7.133 0.76,-6.758 0.77,-6.383 0.76,-6 0.77,-5.578 0.77,-5.172 0.76,-4.738 0.77,-4.301 0.77,-3.84 0.76,-3.39 0.77,-2.918 0.76,-2.449 0.77,-1.961 0.77,-1.481 0.76,-0.988 0.77,-0.512 0.77,-0.012 0.76,0.481 0.77,0.973 0.76,1.457 0.77,1.941 0.77,2.422 0.76,2.898 0.77,3.371 0.83,4.161 0.83,4.699 0.83,5.211 0.83,5.707 0.83,6.203 0.83,6.668 1.66,14.691 0.83,7.969 0.83,8.359 1.66,17.821 3.32,39.308 0.83,10.442 0.83,10.64 1.66,21.75 3.33,44.629 6.64,87.762 0.83,10.34 0.83,10.129 1.66,19.539 0.83,9.383 0.83,9.097 1.66,17.289 0.83,8.172 0.83,7.852 1.66,14.679 0.83,6.821 0.83,6.476 1.66,11.903 0.83,5.418 0.83,5.089 0.83,4.743 0.83,4.41 0.83,4.09 0.83,3.769 0.83,3.469 0.84,3.172 0.83,2.89 0.83,2.61 0.83,2.371 0.83,2.117 0.83,1.891 0.83,1.679 0.83,1.481 0.83,1.301 0.81,1.109 0.82,0.969 0.81,0.832 0.82,0.711 0.81,0.597 0.82,0.512 0.81,0.418 0.82,0.352 0.81,0.281 0.82,0.226 0.81,0.192 0.82,0.14 0.81,0.11 0.82,0.09 0.82,0.07 0.81,0.051 0.82,0.027 0.81,0.031 0.82,0.02 0.81,0.012 0.82,0.007 1.63,0 0.81,0.012 24.7,0"
             style="fill:none;stroke:#0000ff;stroke-opacity:1;stroke-width:11.52;stroke-linecap:square;stroke-linejoin:miter;stroke-miterlimit:3.25;stroke-dasharray:none"
             id="path35377" /><path
             d="m 2177.04,811.66 101.76,0"
             style="fill:none;stroke:#0000ff;stroke-opacity:1;stroke-width:11.52;stroke-linecap:square;stroke-linejoin:miter;stroke-miterlimit:3.25;stroke-dasharray:none"
             id="path35379" /><path
             d="m 2284.99,811.66 20.02,0 0.77,0.012 1.54,0 0.77,0.008 0.77,0.019 0.77,0.012 0.77,0.027 0.77,0.032 0.77,0.05 0.77,0.051 0.77,0.078 0.77,0.102 0.76,0.129 0.77,0.16 0.77,0.199 0.77,0.242 0.77,0.289 0.77,0.36 0.77,0.429 0.77,0.5 0.77,0.59 0.77,0.692 0.77,0.8 0.77,0.918 0.77,1.063 0.77,1.187 0.77,1.36 0.77,1.519 0.77,1.703 0.77,1.887 0.77,2.102 0.77,2.308 0.77,2.532 0.77,2.781 0.77,3.019 0.77,3.27 1.54,7.359 0.75,4 0.76,4.289 1.51,9.41 0.75,5.133 0.76,5.418 1.51,11.711 0.75,6.281 0.76,6.571 1.5,13.976 3.02,31.16 0.76,8.411 0.75,8.64 1.51,17.903 3.02,37.938 6.04,80.72 0.75,10.18 0.76,10.12 1.51,20.03 3.01,38.58 0.76,9.22 0.75,9 1.51,17.3 0.76,8.26 0.75,7.97 1.51,15.02 0.76,7.02 0.75,6.66 0.76,6.29 0.75,5.92 0.75,5.52 0.76,5.12 0.75,4.7 0.76,4.28 0.75,3.83 0.76,3.4 0.75,2.94 0.76,2.48 0.75,2.01 0.76,1.55 0.75,1.08 0.76,0.6 0.81,0.11 0.82,-0.45 0.82,-1.01 0.82,-1.57 0.82,-2.12 0.82,-2.66 0.82,-3.21 0.82,-3.74 0.81,-4.26 0.82,-4.77 0.82,-5.28 0.82,-5.75 0.82,-6.23 0.82,-6.68 1.64,-14.65 0.81,-7.93 0.82,-8.31 1.64,-17.67 3.28,-38.88 6.55,-86.28 0.81,-11.08 0.82,-11.05 1.64,-21.94 3.28,-42.55 0.81,-10.22 0.82,-10.031 1.64,-19.359 3.28,-35.54 0.81,-8.14 0.82,-7.828 1.64,-14.684 0.82,-6.828 0.82,-6.5 1.64,-11.98 0.81,-5.481 0.82,-5.141 0.82,-4.82 0.82,-4.476 0.82,-4.172 0.82,-3.86 1.64,-6.808 0.76,-2.793 0.76,-2.559 0.77,-2.332 0.76,-2.117 0.76,-1.922 0.77,-1.719 0.76,-1.55 0.77,-1.379 0.76,-1.219 0.76,-1.07 0.77,-0.954 0.76,-0.82 0.77,-0.707 0.76,-0.609 0.76,-0.532 0.77,-0.441 0.76,-0.367 0.77,-0.313 0.76,-0.257 0.76,-0.211 0.77,-0.161 0.76,-0.14 0.77,-0.11 0.76,-0.082 0.76,-0.07 0.77,-0.047 0.76,-0.031 0.77,-0.031 0.76,-0.02 0.76,-0.008 0.77,-0.011 0.76,-0.008 0.77,0 0.76,-0.012 25.53,0"
             style="fill:none;stroke:#0000ff;stroke-opacity:1;stroke-width:11.52;stroke-linecap:square;stroke-linejoin:miter;stroke-miterlimit:3.25;stroke-dasharray:none"
             id="path35381" /><path
             d="m 2487.26,811.66 51.17,0"
             style="fill:none;stroke:#0000ff;stroke-opacity:1;stroke-width:11.52;stroke-linecap:square;stroke-linejoin:miter;stroke-miterlimit:3.25;stroke-dasharray:none"
             id="path35383" /><path
             d="m 53.5703,811.66 0,29.051"
             style="fill:none;stroke:#000000;stroke-opacity:1;stroke-width:3.6;stroke-linecap:butt;stroke-linejoin:miter;stroke-miterlimit:3.25;stroke-dasharray:none"
             id="path35385" /></g></g><g
         id="g35399"><g
           id="g35401"
           clip-path="url(#clipPath35403)"><path
             d="m 208.871,811.66 0,17.43"
             style="fill:none;stroke:#000000;stroke-opacity:1;stroke-width:3.6;stroke-linecap:butt;stroke-linejoin:miter;stroke-miterlimit:3.25;stroke-dasharray:none"
             id="path35407" /><path
             d="m 364.18,811.66 0,17.43"
             style="fill:none;stroke:#000000;stroke-opacity:1;stroke-width:3.6;stroke-linecap:butt;stroke-linejoin:miter;stroke-miterlimit:3.25;stroke-dasharray:none"
             id="path35409" /><path
             d="m 519.48,811.66 0,17.43"
             style="fill:none;stroke:#000000;stroke-opacity:1;stroke-width:3.6;stroke-linecap:butt;stroke-linejoin:miter;stroke-miterlimit:3.25;stroke-dasharray:none"
             id="path35411" /><path
             d="m 674.781,811.66 0,29.051"
             style="fill:none;stroke:#000000;stroke-opacity:1;stroke-width:3.6;stroke-linecap:butt;stroke-linejoin:miter;stroke-miterlimit:3.25;stroke-dasharray:none"
             id="path35413" /></g></g><g
         id="g35427"><g
           id="g35429"
           clip-path="url(#clipPath35431)"><path
             d="m 830.09,811.66 0,17.43"
             style="fill:none;stroke:#000000;stroke-opacity:1;stroke-width:3.6;stroke-linecap:butt;stroke-linejoin:miter;stroke-miterlimit:3.25;stroke-dasharray:none"
             id="path35435" /><path
             d="m 985.391,811.66 0,17.43"
             style="fill:none;stroke:#000000;stroke-opacity:1;stroke-width:3.6;stroke-linecap:butt;stroke-linejoin:miter;stroke-miterlimit:3.25;stroke-dasharray:none"
             id="path35437" /><path
             d="m 1140.7,811.66 0,17.43"
             style="fill:none;stroke:#000000;stroke-opacity:1;stroke-width:3.6;stroke-linecap:butt;stroke-linejoin:miter;stroke-miterlimit:3.25;stroke-dasharray:none"
             id="path35439" /><path
             d="m 1296,811.66 0,29.051"
             style="fill:none;stroke:#000000;stroke-opacity:1;stroke-width:3.6;stroke-linecap:butt;stroke-linejoin:miter;stroke-miterlimit:3.25;stroke-dasharray:none"
             id="path35441" /><path
             d="m 1451.3,811.66 0,17.43"
             style="fill:none;stroke:#000000;stroke-opacity:1;stroke-width:3.6;stroke-linecap:butt;stroke-linejoin:miter;stroke-miterlimit:3.25;stroke-dasharray:none"
             id="path35443" /><path
             d="m 1606.61,811.66 0,17.43"
             style="fill:none;stroke:#000000;stroke-opacity:1;stroke-width:3.6;stroke-linecap:butt;stroke-linejoin:miter;stroke-miterlimit:3.25;stroke-dasharray:none"
             id="path35445" /><path
             d="m 1761.91,811.66 0,17.43"
             style="fill:none;stroke:#000000;stroke-opacity:1;stroke-width:3.6;stroke-linecap:butt;stroke-linejoin:miter;stroke-miterlimit:3.25;stroke-dasharray:none"
             id="path35447" /><path
             d="m 1917.22,811.66 0,29.051"
             style="fill:none;stroke:#000000;stroke-opacity:1;stroke-width:3.6;stroke-linecap:butt;stroke-linejoin:miter;stroke-miterlimit:3.25;stroke-dasharray:none"
             id="path35449" /></g></g><g
         id="g35461"><g
           id="g35463"
           clip-path="url(#clipPath35465)"><path
             d="m 2072.52,811.66 0,17.43"
             style="fill:none;stroke:#000000;stroke-opacity:1;stroke-width:3.6;stroke-linecap:butt;stroke-linejoin:miter;stroke-miterlimit:3.25;stroke-dasharray:none"
             id="path35469" /><path
             d="m 2227.82,811.66 0,17.43"
             style="fill:none;stroke:#000000;stroke-opacity:1;stroke-width:3.6;stroke-linecap:butt;stroke-linejoin:miter;stroke-miterlimit:3.25;stroke-dasharray:none"
             id="path35471" /><path
             d="m 2383.13,811.66 0,17.43"
             style="fill:none;stroke:#000000;stroke-opacity:1;stroke-width:3.6;stroke-linecap:butt;stroke-linejoin:miter;stroke-miterlimit:3.25;stroke-dasharray:none"
             id="path35473" /><path
             d="m 2538.43,811.66 0,29.051"
             style="fill:none;stroke:#000000;stroke-opacity:1;stroke-width:3.6;stroke-linecap:butt;stroke-linejoin:miter;stroke-miterlimit:3.25;stroke-dasharray:none"
             id="path35475" /></g></g><g
         id="g35487"><g
           id="g35489"
           clip-path="url(#clipPath35491)"><path
             d="m 1.80078,811.66 2588.39922,0"
             style="fill:none;stroke:#000000;stroke-opacity:1;stroke-width:3.6;stroke-linecap:butt;stroke-linejoin:miter;stroke-miterlimit:3.25;stroke-dasharray:none"
             id="path35495" /><path
             d="m 1296,11.8008 17.43,0"
             style="fill:none;stroke:#000000;stroke-opacity:1;stroke-width:3.6;stroke-linecap:butt;stroke-linejoin:miter;stroke-miterlimit:3.25;stroke-dasharray:none"
             id="path35497" /><path
             d="m 1296,68.9297 17.43,0"
             style="fill:none;stroke:#000000;stroke-opacity:1;stroke-width:3.6;stroke-linecap:butt;stroke-linejoin:miter;stroke-miterlimit:3.25;stroke-dasharray:none"
             id="path35499" /><path
             d="m 1296,126.07 29.05,0"
             style="fill:none;stroke:#000000;stroke-opacity:1;stroke-width:3.6;stroke-linecap:butt;stroke-linejoin:miter;stroke-miterlimit:3.25;stroke-dasharray:none"
             id="path35501" /></g></g><g
         id="g35519"><g
           id="g35521"
           clip-path="url(#clipPath35523)"><path
             d="m 1296,183.199 17.43,0"
             style="fill:none;stroke:#000000;stroke-opacity:1;stroke-width:3.6;stroke-linecap:butt;stroke-linejoin:miter;stroke-miterlimit:3.25;stroke-dasharray:none"
             id="path35527" /><path
             d="m 1296,240.332 17.43,0"
             style="fill:none;stroke:#000000;stroke-opacity:1;stroke-width:3.6;stroke-linecap:butt;stroke-linejoin:miter;stroke-miterlimit:3.25;stroke-dasharray:none"
             id="path35529" /><path
             d="m 1296,297.461 17.43,0"
             style="fill:none;stroke:#000000;stroke-opacity:1;stroke-width:3.6;stroke-linecap:butt;stroke-linejoin:miter;stroke-miterlimit:3.25;stroke-dasharray:none"
             id="path35531" /><path
             d="m 1296,354.602 29.05,0"
             style="fill:none;stroke:#000000;stroke-opacity:1;stroke-width:3.6;stroke-linecap:butt;stroke-linejoin:miter;stroke-miterlimit:3.25;stroke-dasharray:none"
             id="path35533" /></g></g><g
         id="g35551"><g
           id="g35553"
           clip-path="url(#clipPath35555)"><path
             d="m 1296,411.73 17.43,0"
             style="fill:none;stroke:#000000;stroke-opacity:1;stroke-width:3.6;stroke-linecap:butt;stroke-linejoin:miter;stroke-miterlimit:3.25;stroke-dasharray:none"
             id="path35559" /><path
             d="m 1296,468.859 17.43,0"
             style="fill:none;stroke:#000000;stroke-opacity:1;stroke-width:3.6;stroke-linecap:butt;stroke-linejoin:miter;stroke-miterlimit:3.25;stroke-dasharray:none"
             id="path35561" /><path
             d="m 1296,526 17.43,0"
             style="fill:none;stroke:#000000;stroke-opacity:1;stroke-width:3.6;stroke-linecap:butt;stroke-linejoin:miter;stroke-miterlimit:3.25;stroke-dasharray:none"
             id="path35563" /><path
             d="m 1296,583.129 29.05,0"
             style="fill:none;stroke:#000000;stroke-opacity:1;stroke-width:3.6;stroke-linecap:butt;stroke-linejoin:miter;stroke-miterlimit:3.25;stroke-dasharray:none"
             id="path35565" /></g></g><g
         id="g35583"><g
           id="g35585"
           clip-path="url(#clipPath35587)"><path
             d="m 1296,640.262 17.43,0"
             style="fill:none;stroke:#000000;stroke-opacity:1;stroke-width:3.6;stroke-linecap:butt;stroke-linejoin:miter;stroke-miterlimit:3.25;stroke-dasharray:none"
             id="path35591" /><path
             d="m 1296,697.391 17.43,0"
             style="fill:none;stroke:#000000;stroke-opacity:1;stroke-width:3.6;stroke-linecap:butt;stroke-linejoin:miter;stroke-miterlimit:3.25;stroke-dasharray:none"
             id="path35593" /><path
             d="m 1296,754.531 17.43,0"
             style="fill:none;stroke:#000000;stroke-opacity:1;stroke-width:3.6;stroke-linecap:butt;stroke-linejoin:miter;stroke-miterlimit:3.25;stroke-dasharray:none"
             id="path35595" /><path
             d="m 1296,811.66 29.05,0"
             style="fill:none;stroke:#000000;stroke-opacity:1;stroke-width:3.6;stroke-linecap:butt;stroke-linejoin:miter;stroke-miterlimit:3.25;stroke-dasharray:none"
             id="path35597" /><path
             d="m 1296,868.789 17.43,0"
             style="fill:none;stroke:#000000;stroke-opacity:1;stroke-width:3.6;stroke-linecap:butt;stroke-linejoin:miter;stroke-miterlimit:3.25;stroke-dasharray:none"
             id="path35599" /><path
             d="m 1296,925.93 17.43,0"
             style="fill:none;stroke:#000000;stroke-opacity:1;stroke-width:3.6;stroke-linecap:butt;stroke-linejoin:miter;stroke-miterlimit:3.25;stroke-dasharray:none"
             id="path35601" /><path
             d="m 1296,983.059 17.43,0"
             style="fill:none;stroke:#000000;stroke-opacity:1;stroke-width:3.6;stroke-linecap:butt;stroke-linejoin:miter;stroke-miterlimit:3.25;stroke-dasharray:none"
             id="path35603" /><path
             d="m 1296,1040.19 29.05,0"
             style="fill:none;stroke:#000000;stroke-opacity:1;stroke-width:3.6;stroke-linecap:butt;stroke-linejoin:miter;stroke-miterlimit:3.25;stroke-dasharray:none"
             id="path35605" /></g></g><g
         id="g35621"><g
           id="g35623"
           clip-path="url(#clipPath35625)"><path
             d="m 1296,1097.32 17.43,0"
             style="fill:none;stroke:#000000;stroke-opacity:1;stroke-width:3.6;stroke-linecap:butt;stroke-linejoin:miter;stroke-miterlimit:3.25;stroke-dasharray:none"
             id="path35629" /><path
             d="m 1296,1154.46 17.43,0"
             style="fill:none;stroke:#000000;stroke-opacity:1;stroke-width:3.6;stroke-linecap:butt;stroke-linejoin:miter;stroke-miterlimit:3.25;stroke-dasharray:none"
             id="path35631" /><path
             d="m 1296,1211.59 17.43,0"
             style="fill:none;stroke:#000000;stroke-opacity:1;stroke-width:3.6;stroke-linecap:butt;stroke-linejoin:miter;stroke-miterlimit:3.25;stroke-dasharray:none"
             id="path35633" /><path
             d="m 1296,1268.72 29.05,0"
             style="fill:none;stroke:#000000;stroke-opacity:1;stroke-width:3.6;stroke-linecap:butt;stroke-linejoin:miter;stroke-miterlimit:3.25;stroke-dasharray:none"
             id="path35635" /></g></g><g
         id="g35651"><g
           id="g35653"
           clip-path="url(#clipPath35655)"><path
             d="m 1296,1325.86 17.43,0"
             style="fill:none;stroke:#000000;stroke-opacity:1;stroke-width:3.6;stroke-linecap:butt;stroke-linejoin:miter;stroke-miterlimit:3.25;stroke-dasharray:none"
             id="path35659" /><path
             d="m 1296,1382.99 17.43,0"
             style="fill:none;stroke:#000000;stroke-opacity:1;stroke-width:3.6;stroke-linecap:butt;stroke-linejoin:miter;stroke-miterlimit:3.25;stroke-dasharray:none"
             id="path35661" /><path
             d="m 1296,1440.12 17.43,0"
             style="fill:none;stroke:#000000;stroke-opacity:1;stroke-width:3.6;stroke-linecap:butt;stroke-linejoin:miter;stroke-miterlimit:3.25;stroke-dasharray:none"
             id="path35663" /><path
             d="m 1296,1497.25 29.05,0"
             style="fill:none;stroke:#000000;stroke-opacity:1;stroke-width:3.6;stroke-linecap:butt;stroke-linejoin:miter;stroke-miterlimit:3.25;stroke-dasharray:none"
             id="path35665" /></g></g><g
         id="g35681"><g
           id="g35683"
           clip-path="url(#clipPath35685)"><path
             d="m 1296,1554.39 17.43,0"
             style="fill:none;stroke:#000000;stroke-opacity:1;stroke-width:3.6;stroke-linecap:butt;stroke-linejoin:miter;stroke-miterlimit:3.25;stroke-dasharray:none"
             id="path35689" /><path
             d="m 1296,1611.52 17.43,0"
             style="fill:none;stroke:#000000;stroke-opacity:1;stroke-width:3.6;stroke-linecap:butt;stroke-linejoin:miter;stroke-miterlimit:3.25;stroke-dasharray:none"
             id="path35691" /><path
             d="m 1296,11.8008 0,1599.7192"
             style="fill:none;stroke:#000000;stroke-opacity:1;stroke-width:3.6;stroke-linecap:butt;stroke-linejoin:miter;stroke-miterlimit:3.25;stroke-dasharray:none"
             id="path35693" /></g></g><g
         id="g35695"
         transform="matrix(1.9235,0,0,0.75307674,-2661.3182,517.78836)"><g
           id="g35697"
           clip-path="url(#clipPath35699)"><path
             d="m 2714.28,809 132.48,0"
             style="fill:none;stroke:#0000ff;stroke-width:11.52000046;stroke-linecap:square;stroke-linejoin:miter;stroke-miterlimit:3.25;stroke-opacity:1;stroke-dasharray:none"
             id="path35703"
             inkscape:connector-curvature="0" /></g></g><g
         id="g35874"><g
           id="content"
           transform="matrix(0.291071428571,0,0,-0.291071428571,-50.9375,298.125)"
           xml:space="preserve"
           stroke="black"
           stroke-linecap="butt"
           stroke-linejoin="miter"
           stroke-miterlimit="10.433"
           stroke-dasharray="none"
           stroke-dashoffset="0"
           stroke-opacity="1"
           fill="none"
           fill-rule="evenodd"
           fill-opacity="1"
           font-style="normal"
           font-variant="normal"
           font-weight="normal"
           font-stretch="normal"
           font-size-adjust="none"
           letter-spacing="normal"
           word-spacing="normal"
           text-anchor="start"><path
             d="M479.54,439.48 L479.54,439.5 L479.54,439.52 L479.55,439.56 L479.57,439.6 L479.58,439.65 L479.59,439.69 L479.6,439.74 L479.61,439.79 L479.62,439.84 L479.63,439.89 L479.64,439.94 L479.65,439.99 L479.66,440.04 L479.67,440.09 L479.67,440.13 L479.67,440.18 L479.68,440.21 L479.68,440.23 C479.68,440.73,479.33,440.78,479.08,440.78 C478.58,440.78,478.54,440.67,478.33,439.78 L470.07,406.84 C466.29,407.29,464.39,409.14,464.39,412.43 C464.39,413.42,464.39,414.71,467.08,421.7 C467.29,422.29,467.63,423.14,467.63,424.14 C467.63,426.37,466.04,428.21,463.54,428.21 C458.8,428.21,456.96,421,456.96,420.54 C456.96,420.04,457.46,420.04,457.57,420.04 C458.07,420.04,458.11,420.15,458.36,420.95 C459.71,425.68,461.69,427.12,463.39,427.12 C463.79,427.12,464.64,427.12,464.64,425.53 C464.64,424.23,464.14,423,463.49,421.25 C461.1,414.96,461.1,413.67,461.1,412.82 C461.1,408.09,464.99,406.04,469.77,405.75 C469.36,403.96,469.36,403.86,468.68,401.21 C468.52,400.67,467.52,396.64,467.52,396.48 C467.52,396.43,467.52,395.98,468.13,395.98 C468.22,395.98,468.47,395.98,468.57,396.18 C468.72,396.28,469.02,397.53,469.18,398.23 L471.07,405.65 C472.91,405.65,477.29,405.65,481.97,410.98 C484.02,413.28,485.07,415.46,485.61,416.96 C486.07,418.2,487.16,422.54,487.16,424.73 C487.16,427.53,485.82,428.21,484.96,428.21 C483.72,428.21,482.47,426.92,482.47,425.82 C482.47,425.18,482.77,424.89,483.22,424.48 C483.77,423.93,485.02,422.64,485.02,420.25 C485.02,417.06,482.43,412.98,480.68,411.18 C476.3,406.75,473.11,406.75,471.32,406.75 Z "
             stroke-width="0"
             fill="black"
             id="path35877" /><path
             d="M513.84,406.64 L513.9,406.64 L513.95,406.64 L514.07,406.64 L514.18,406.64 L514.24,406.65 L514.3,406.65 L514.36,406.66 L514.42,406.66 L514.47,406.67 L514.53,406.68 L514.59,406.69 L514.64,406.71 L514.7,406.72 L514.75,406.74 L514.8,406.76 L514.85,406.79 L514.9,406.81 L514.94,406.84 L514.98,406.88 L515.02,406.91 L515.06,406.95 L515.08,406.97 L515.1,406.99 L515.11,407.02 L515.13,407.04 L515.14,407.06 L515.15,407.09 L515.17,407.12 L515.18,407.14 L515.19,407.17 L515.2,407.2 L515.21,407.23 L515.21,407.26 L515.22,407.3 L515.22,407.33 L515.23,407.37 L515.23,407.4 L515.23,407.44 L515.23,407.48 C515.23,408.34,514.44,408.34,513.84,408.34 H493.08 C492.52,408.34,491.69,408.34,491.69,407.51 C491.69,406.64,492.48,406.64,493.08,406.64 Z "
             stroke-width="0"
             fill="black"
             id="path35879" /><path
             d="M538.12,394.25 L538.12,394.27 L538.12,394.3 L538.12,394.31 L538.12,394.33 L538.12,394.34 L538.11,394.36 L538.11,394.37 L538.1,394.39 L538.09,394.41 L538.08,394.43 L538.07,394.45 L538.05,394.48 L538.04,394.5 L538.02,394.53 L538,394.56 L537.97,394.59 L537.95,394.62 L537.92,394.66 L537.9,394.68 L537.89,394.7 L537.87,394.72 L537.85,394.74 L537.83,394.76 L537.81,394.79 L537.79,394.81 L537.77,394.83 L537.75,394.86 L537.72,394.88 L537.7,394.91 L537.67,394.94 L537.65,394.97 L537.62,395 L537.59,395.03 L537.56,395.06 L537.53,395.09 L537.5,395.12 L537.46,395.16 L537.43,395.19 L537.39,395.23 L537.36,395.26 L537.32,395.3 L537.28,395.34 C531.06,401.62,529.47,411.03,529.47,418.65 C529.47,427.32,531.36,436,537.48,442.21 C538.12,442.82,538.12,442.92,538.12,443.07 C538.12,443.42,537.94,443.56,537.64,443.56 C537.14,443.56,532.66,440.18,529.72,433.86 C527.17,428.37,526.58,422.84,526.58,418.65 C526.58,414.76,527.12,408.75,529.86,403.11 C532.84,396.98,537.14,393.75,537.64,393.75 C537.94,393.75,538.12,393.89,538.12,394.25 Z "
             stroke-width="0"
             fill="black"
             id="path35881" /><path
             d="M563.47,427.67 L563.47,427.69 L563.47,427.71 L563.47,427.73 L563.47,427.75 L563.46,427.77 L563.46,427.79 L563.45,427.81 L563.45,427.83 L563.44,427.85 L563.43,427.87 L563.42,427.89 L563.41,427.92 L563.4,427.94 L563.39,427.96 L563.37,427.98 L563.36,427.99 L563.34,428.01 L563.33,428.03 L563.31,428.05 L563.29,428.06 L563.27,428.08 L563.25,428.09 L563.23,428.11 L563.2,428.12 L563.18,428.13 L563.15,428.14 L563.13,428.15 L563.1,428.15 L563.07,428.16 L563.04,428.16 L563.01,428.17 L562.99,428.17 L562.97,428.17 C562.43,428.17,560.44,426.18,559.6,424.73 C558.49,427.42,556.55,428.21,554.96,428.21 V427.12 C558.19,427.12,558.9,423.09,558.9,422.75 C558.9,422.43,556.16,411.53,556,411.32 C555.25,409.93,552.47,406.75,549.68,406.75 H549.68 C546.69,406.75,546.49,410.59,546.49,411.43 C546.49,413.82,547.93,419.25,548.78,421.34 C550.32,425.03,552.91,427.12,554.96,427.12 V428.21 C549.08,428.21,542.96,420.84,542.96,413.62 C542.96,408.75,545.9,405.65,549.52,405.65 C551.68,405.65,553.61,406.84,555.41,408.64 C554.96,406.9,553.32,400.17,553.16,399.71 C552.77,398.32,552.36,398.12,549.58,398.07 C548.93,398.07,548.43,398.07,548.43,397.07 C548.43,397.03,548.43,396.53,549.08,396.53 C550.68,396.53,552.41,396.68,554.07,396.68 C555.75,396.68,557.55,396.53,559.19,396.53 C559.44,396.53,560.08,396.53,560.08,397.53 C560.08,398.07,559.6,398.07,558.8,398.07 C556.4,398.07,556.4,398.43,556.4,398.87 C556.4,399.23,556.5,399.53,556.6,399.96 Z "
             stroke-width="0"
             fill="black"
             id="path35883" /><path
             d="M579.35,418.65 L579.35,419.02 L579.34,419.41 L579.33,419.8 L579.32,420.21 L579.28,421.05 L579.22,421.93 L579.14,422.85 L579.03,423.8 L578.9,424.77 L578.73,425.78 L578.54,426.8 L578.31,427.83 L578.04,428.88 L577.73,429.94 L577.38,431.01 L576.99,432.08 L576.78,432.61 L576.55,433.14 L576.32,433.67 L576.07,434.2 C573.08,440.32,568.8,443.56,568.3,443.56 C568,443.56,567.8,443.37,567.8,443.07 C567.8,442.92,567.8,442.82,568.74,441.92 C573.63,437,576.47,429.07,576.47,418.65 C576.47,410.14,574.63,401.37,568.44,395.09 C567.8,394.5,567.8,394.39,567.8,394.25 C567.8,393.95,568,393.75,568.3,393.75 C568.8,393.75,573.27,397.14,576.22,403.46 C578.75,408.93,579.35,414.46,579.35,418.65 Z "
             stroke-width="0"
             fill="black"
             id="path35885" /></g></g><g
         id="g36179"
         transform="matrix(7.9998522,0,0,-7.9998522,2200.6063,2537.1333)"><g
           word-spacing="normal"
           letter-spacing="normal"
           font-size-adjust="none"
           font-stretch="normal"
           font-weight="normal"
           font-variant="normal"
           font-style="normal"
           stroke-miterlimit="10.433"
           xml:space="preserve"
           transform="matrix(0.29107143,0,0,-0.29107143,-50.9375,298.125)"
           id="g36181"
           style="font-style:normal;font-variant:normal;font-weight:normal;font-stretch:normal;letter-spacing:normal;word-spacing:normal;text-anchor:start;fill:none;stroke:#000000;stroke-linecap:butt;stroke-linejoin:miter;stroke-miterlimit:10.43299961;stroke-opacity:1;stroke-dasharray:none;stroke-dashoffset:0"><path
             id="path36183"
             d="m 479.54,439.48 0,0.02 0,0.02 0.01,0.04 0.02,0.04 0.01,0.05 0.01,0.04 0.01,0.05 0.01,0.05 0.01,0.05 0.01,0.05 0.01,0.05 0.01,0.05 0.01,0.05 0.01,0.05 0,0.04 0,0.05 0.01,0.03 0,0.02 c 0,0.5 -0.35,0.55 -0.6,0.55 -0.5,0 -0.54,-0.11 -0.75,-1 l -8.26,-32.94 c -3.78,0.45 -5.68,2.3 -5.68,5.59 0,0.99 0,2.28 2.69,9.27 0.21,0.59 0.55,1.44 0.55,2.44 0,2.23 -1.59,4.07 -4.09,4.07 -4.74,0 -6.58,-7.21 -6.58,-7.67 0,-0.5 0.5,-0.5 0.61,-0.5 0.5,0 0.54,0.11 0.79,0.91 1.35,4.73 3.33,6.17 5.03,6.17 0.4,0 1.25,0 1.25,-1.59 0,-1.3 -0.5,-2.53 -1.15,-4.28 -2.39,-6.29 -2.39,-7.58 -2.39,-8.43 0,-4.73 3.89,-6.78 8.67,-7.07 -0.41,-1.79 -0.41,-1.89 -1.09,-4.54 -0.16,-0.54 -1.16,-4.57 -1.16,-4.73 0,-0.05 0,-0.5 0.61,-0.5 0.09,0 0.34,0 0.44,0.2 0.15,0.1 0.45,1.35 0.61,2.05 l 1.89,7.42 c 1.84,0 6.22,0 10.9,5.33 2.05,2.3 3.1,4.48 3.64,5.98 0.46,1.24 1.55,5.58 1.55,7.77 0,2.8 -1.34,3.48 -2.2,3.48 -1.24,0 -2.49,-1.29 -2.49,-2.39 0,-0.64 0.3,-0.93 0.75,-1.34 0.55,-0.55 1.8,-1.84 1.8,-4.23 0,-3.19 -2.59,-7.27 -4.34,-9.07 -4.38,-4.43 -7.57,-4.43 -9.36,-4.43 z"
             inkscape:connector-curvature="0"
             style="fill:#000000;stroke-width:0" /><path
             id="path36185"
             d="m 513.84,406.64 0.06,0 0.05,0 0.12,0 0.11,0 0.06,0.01 0.06,0 0.06,0.01 0.06,0 0.05,0.01 0.06,0.01 0.06,0.01 0.05,0.02 0.06,0.01 0.05,0.02 0.05,0.02 0.05,0.03 0.05,0.02 0.04,0.03 0.04,0.04 0.04,0.03 0.04,0.04 0.02,0.02 0.02,0.02 0.01,0.03 0.02,0.02 0.01,0.02 0.01,0.03 0.02,0.03 0.01,0.02 0.01,0.03 0.01,0.03 0.01,0.03 0,0.03 0.01,0.04 0,0.03 0.01,0.04 0,0.03 0,0.04 0,0.04 c 0,0.86 -0.79,0.86 -1.39,0.86 h -20.76 c -0.56,0 -1.39,0 -1.39,-0.83 0,-0.87 0.79,-0.87 1.39,-0.87 z"
             inkscape:connector-curvature="0"
             style="fill:#000000;stroke-width:0" /><path
             id="path36187"
             d="m 538.12,394.25 0,0.02 0,0.03 0,0.01 0,0.02 0,0.01 -0.01,0.02 0,0.01 -0.01,0.02 -0.01,0.02 -0.01,0.02 -0.01,0.02 -0.02,0.03 -0.01,0.02 -0.02,0.03 -0.02,0.03 -0.03,0.03 -0.02,0.03 -0.03,0.04 -0.02,0.02 -0.01,0.02 -0.02,0.02 -0.02,0.02 -0.02,0.02 -0.02,0.03 -0.02,0.02 -0.02,0.02 -0.02,0.03 -0.03,0.02 -0.02,0.03 -0.03,0.03 -0.02,0.03 -0.03,0.03 -0.03,0.03 -0.03,0.03 -0.03,0.03 -0.03,0.03 -0.04,0.04 -0.03,0.03 -0.04,0.04 -0.03,0.03 -0.04,0.04 -0.04,0.04 c -6.22,6.28 -7.81,15.69 -7.81,23.31 0,8.67 1.89,17.35 8.01,23.56 0.64,0.61 0.64,0.71 0.64,0.86 0,0.35 -0.18,0.49 -0.48,0.49 -0.5,0 -4.98,-3.38 -7.92,-9.7 -2.55,-5.49 -3.14,-11.02 -3.14,-15.21 0,-3.89 0.54,-9.9 3.28,-15.54 2.98,-6.13 7.28,-9.36 7.78,-9.36 0.3,0 0.48,0.14 0.48,0.5 z"
             inkscape:connector-curvature="0"
             style="fill:#000000;stroke-width:0" /><path
             id="path36189"
             d="m 563.47,427.67 0,0.02 0,0.02 0,0.02 0,0.02 -0.01,0.02 0,0.02 -0.01,0.02 0,0.02 -0.01,0.02 -0.01,0.02 -0.01,0.02 -0.01,0.03 -0.01,0.02 -0.01,0.02 -0.02,0.02 -0.01,0.01 -0.02,0.02 -0.01,0.02 -0.02,0.02 -0.02,0.01 -0.02,0.02 -0.02,0.01 -0.02,0.02 -0.03,0.01 -0.02,0.01 -0.03,0.01 -0.02,0.01 -0.03,0 -0.03,0.01 -0.03,0 -0.03,0.01 -0.02,0 -0.02,0 c -0.54,0 -2.53,-1.99 -3.37,-3.44 -1.11,2.69 -3.05,3.48 -4.64,3.48 v -1.09 c 3.23,0 3.94,-4.03 3.94,-4.37 0,-0.32 -2.74,-11.22 -2.9,-11.43 -0.75,-1.39 -3.53,-4.57 -6.32,-4.57 h 0 c -2.99,0 -3.19,3.84 -3.19,4.68 0,2.39 1.44,7.82 2.29,9.91 1.54,3.69 4.13,5.78 6.18,5.78 v 1.09 c -5.88,0 -12,-7.37 -12,-14.59 0,-4.87 2.94,-7.97 6.56,-7.97 2.16,0 4.09,1.19 5.89,2.99 -0.45,-1.74 -2.09,-8.47 -2.25,-8.93 -0.39,-1.39 -0.8,-1.59 -3.58,-1.64 -0.65,0 -1.15,0 -1.15,-1 0,-0.04 0,-0.54 0.65,-0.54 1.6,0 3.33,0.15 4.99,0.15 1.68,0 3.48,-0.15 5.12,-0.15 0.25,0 0.89,0 0.89,1 0,0.54 -0.48,0.54 -1.28,0.54 -2.4,0 -2.4,0.36 -2.4,0.8 0,0.36 0.1,0.66 0.2,1.09 z"
             inkscape:connector-curvature="0"
             style="fill:#000000;stroke-width:0" /><path
             id="path36191"
             d="m 579.35,418.65 0,0.37 -0.01,0.39 -0.01,0.39 -0.01,0.41 -0.04,0.84 -0.06,0.88 -0.08,0.92 -0.11,0.95 -0.13,0.97 -0.17,1.01 -0.19,1.02 -0.23,1.03 -0.27,1.05 -0.31,1.06 -0.35,1.07 -0.39,1.07 -0.21,0.53 -0.23,0.53 -0.23,0.53 -0.25,0.53 c -2.99,6.12 -7.27,9.36 -7.77,9.36 -0.3,0 -0.5,-0.19 -0.5,-0.49 0,-0.15 0,-0.25 0.94,-1.15 4.89,-4.92 7.73,-12.85 7.73,-23.27 0,-8.51 -1.84,-17.28 -8.03,-23.56 -0.64,-0.59 -0.64,-0.7 -0.64,-0.84 0,-0.3 0.2,-0.5 0.5,-0.5 0.5,0 4.97,3.39 7.92,9.71 2.53,5.47 3.13,11 3.13,15.19 z"
             inkscape:connector-curvature="0"
             style="fill:#000000;stroke-width:0" /></g></g></g></g></svg>