<?xml version="1.0" encoding="UTF-8" standalone="no"?>
<!-- Created with Inkscape (http://www.inkscape.org/) -->

<svg
   xmlns:dc="http://purl.org/dc/elements/1.1/"
   xmlns:cc="http://creativecommons.org/ns#"
   xmlns:rdf="http://www.w3.org/1999/02/22-rdf-syntax-ns#"
   xmlns:svg="http://www.w3.org/2000/svg"
   xmlns="http://www.w3.org/2000/svg"
   xmlns:sodipodi="http://sodipodi.sourceforge.net/DTD/sodipodi-0.dtd"
   xmlns:inkscape="http://www.inkscape.org/namespaces/inkscape"
   id="svg34630"
   version="1.1"
   inkscape:version="0.48.4 r9939"
   width="397.5"
   height="203.75"
   xml:space="preserve"
   sodipodi:docname="plus.svg"><sodipodi:namedview
     pagecolor="#ffffff"
     bordercolor="#666666"
     borderopacity="1"
     objecttolerance="10"
     gridtolerance="10"
     guidetolerance="10"
     inkscape:pageopacity="0"
     inkscape:pageshadow="2"
     inkscape:window-width="1855"
     inkscape:window-height="1176"
     id="namedview34632"
     showgrid="false"
     inkscape:zoom="1.4444546"
     inkscape:cx="528.04916"
     inkscape:cy="-35.598129"
     inkscape:window-x="65"
     inkscape:window-y="24"
     inkscape:window-maximized="1"
     inkscape:current-layer="g34640" /><metadata
     id="metadata34636"><rdf:RDF><cc:Work
         rdf:about=""><dc:format>image/svg+xml</dc:format><dc:type
           rdf:resource="http://purl.org/dc/dcmitype/StillImage" /><dc:title></dc:title></cc:Work></rdf:RDF></metadata><defs
     id="defs34634"><clipPath
       id="clipPath34646"
       clipPathUnits="userSpaceOnUse"><path
         id="path34648"
         d="m 0,10 2600,0 0,1610 L 0,1620 0,10 z" /></clipPath><clipPath
       id="clipPath34690"
       clipPathUnits="userSpaceOnUse"><path
         id="path34692"
         d="m 0,690 120,0 0,120 -120,0 0,-120 z" /></clipPath><clipPath
       id="clipPath34702"
       clipPathUnits="userSpaceOnUse"><path
         id="path34704"
         d="m 0,10 2600,0 0,1610 L 0,1620 0,10 z" /></clipPath><clipPath
       id="clipPath34718"
       clipPathUnits="userSpaceOnUse"><path
         id="path34720"
         d="m 610,690 130,0 0,120 -130,0 0,-120 z" /></clipPath><clipPath
       id="clipPath34730"
       clipPathUnits="userSpaceOnUse"><path
         id="path34732"
         d="m 0,10 2600,0 0,1610 L 0,1620 0,10 z" /></clipPath><clipPath
       id="clipPath34754"
       clipPathUnits="userSpaceOnUse"><path
         id="path34756"
         d="m 1880,690 80,0 0,120 -80,0 0,-120 z" /></clipPath><clipPath
       id="clipPath34764"
       clipPathUnits="userSpaceOnUse"><path
         id="path34766"
         d="m 0,10 2600,0 0,1610 L 0,1620 0,10 z" /></clipPath><clipPath
       id="clipPath34780"
       clipPathUnits="userSpaceOnUse"><path
         id="path34782"
         d="m 2500,690 80,0 0,120 -80,0 0,-120 z" /></clipPath><clipPath
       id="clipPath34790"
       clipPathUnits="userSpaceOnUse"><path
         id="path34792"
         d="m 0,10 2600,0 0,1610 L 0,1620 0,10 z" /></clipPath><clipPath
       id="clipPath34806"
       clipPathUnits="userSpaceOnUse"><path
         id="path34808"
         d="m 1080,70 210,0 0,120 -210,0 0,-120 z" /></clipPath><clipPath
       id="clipPath34822"
       clipPathUnits="userSpaceOnUse"><path
         id="path34824"
         d="m 0,10 2600,0 0,1610 L 0,1620 0,10 z" /></clipPath><clipPath
       id="clipPath34838"
       clipPathUnits="userSpaceOnUse"><path
         id="path34840"
         d="m 1080,290 210,0 0,120 -210,0 0,-120 z" /></clipPath><clipPath
       id="clipPath34854"
       clipPathUnits="userSpaceOnUse"><path
         id="path34856"
         d="m 0,10 2600,0 0,1610 L 0,1620 0,10 z" /></clipPath><clipPath
       id="clipPath34870"
       clipPathUnits="userSpaceOnUse"><path
         id="path34872"
         d="m 1080,520 210,0 0,120 -210,0 0,-120 z" /></clipPath><clipPath
       id="clipPath34886"
       clipPathUnits="userSpaceOnUse"><path
         id="path34888"
         d="m 0,10 2600,0 0,1610 L 0,1620 0,10 z" /></clipPath><clipPath
       id="clipPath34910"
       clipPathUnits="userSpaceOnUse"><path
         id="path34912"
         d="m 1130,980 160,0 0,120 -160,0 0,-120 z" /></clipPath><clipPath
       id="clipPath34924"
       clipPathUnits="userSpaceOnUse"><path
         id="path34926"
         d="m 0,10 2600,0 0,1610 L 0,1620 0,10 z" /></clipPath><clipPath
       id="clipPath34940"
       clipPathUnits="userSpaceOnUse"><path
         id="path34942"
         d="m 1130,1210 160,0 0,120 -160,0 0,-120 z" /></clipPath><clipPath
       id="clipPath34954"
       clipPathUnits="userSpaceOnUse"><path
         id="path34956"
         d="m 0,10 2600,0 0,1610 L 0,1620 0,10 z" /></clipPath><clipPath
       id="clipPath34970"
       clipPathUnits="userSpaceOnUse"><path
         id="path34972"
         d="m 1130,1440 160,0 0,120 -160,0 0,-120 z" /></clipPath><clipPath
       id="clipPath34984"
       clipPathUnits="userSpaceOnUse"><path
         id="path34986"
         d="m 0,10 2600,0 0,1610 L 0,1620 0,10 z" /></clipPath><clipPath
       id="clipPath34998"
       clipPathUnits="userSpaceOnUse"><path
         id="path35000"
         d="m 2700,770 160,0 0,90 -160,0 0,-90 z" /></clipPath></defs><g
     transform="matrix(1.25,0,0,-1.25,0,203.75)"
     inkscape:label="ink_ext_XXXXXX"
     inkscape:groupmode="layer"
     id="g34638"><g
       transform="scale(0.1,0.1)"
       id="g34640"><g
         id="g34642"><g
           clip-path="url(#clipPath34646)"
           id="g34644"><path
             id="path34650"
             style="fill:none;stroke:#0000ff;stroke-opacity:1;stroke-width:11.52;stroke-linecap:square;stroke-linejoin:miter;stroke-miterlimit:3.25;stroke-dasharray:none"
             d="m 53.5703,811.66 50.9687,0" /><path
             id="path34652"
             style="fill:none;stroke:#0000ff;stroke-opacity:1;stroke-width:11.52;stroke-linecap:square;stroke-linejoin:miter;stroke-miterlimit:3.25;stroke-dasharray:none"
             d="m 108.949,811.66 22.313,0 0.828,0.012 0.82,0 0.828,0.008 0.821,0.011 0.832,0.02 0.828,0.027 0.82,0.043 0.832,0.047 0.828,0.07 0.821,0.09 0.832,0.121 0.82,0.153 0.828,0.187 0.828,0.25 0.82,0.301 0.832,0.371 0.829,0.438 0.82,0.543 0.832,0.636 0.82,0.75 0.828,0.883 0.832,1.02 0.821,1.168 0.828,1.351 0.82,1.531 0.828,1.739 0.832,1.949 0.821,2.172 0.828,2.418 0.769,2.5 0.774,2.73 0.769,2.973 0.778,3.226 0.769,3.493 0.774,3.769 1.539,8.371 0.769,4.617 0.77,4.922 1.55,10.731 0.77,5.82 0.77,6.117 1.539,13.141 0.769,7.019 0.781,7.301 1.539,15.449 3.082,34.024 0.782,9.09 0.769,9.297 1.539,19.161 3.09,40.12 0.77,10.29 0.769,10.36 1.539,20.84 3.09,41.56 0.774,10.23 0.769,10.13 1.539,19.85 3.09,37.48 0.77,8.79 0.769,8.5 1.551,16.12 0.769,7.57 0.77,7.22 1.543,13.33 0.769,6.08 0.77,5.67 0.777,5.24 0.774,4.82 0.769,4.36 0.77,3.91 0.769,3.44 0.77,2.97 0.762,2.45 0.757,1.98 0.75,1.5 0.762,1.04 0.75,0.55 0.758,0.07 0.762,-0.4 0.75,-0.88 0.757,-1.36 0.762,-1.83 0.75,-2.29 0.762,-2.77 0.75,-3.21 0.758,-3.67 0.761,-4.12 0.75,-4.54 0.758,-4.97 0.762,-5.38 1.508,-11.94 0.761,-6.54 0.75,-6.89 1.508,-14.81 0.762,-7.88 0.762,-8.17 1.508,-17.15 3.031,-37.01 0.75,-9.7 0.758,-9.84 1.511,-20.01 3.032,-40.77 0.75,-10.22 0.757,-10.2 1.512,-20.24 3.027,-39.33 0.75,-9.492 0.762,-9.316 1.512,-18.071 0.758,-8.722 0.75,-8.5 1.519,-16.278 0.75,-7.761 0.762,-7.5 1.508,-14.18 0.761,-6.672 0.75,-6.379 1.52,-11.898 0.82,-5.973 0.821,-5.629 0.82,-5.277 0.82,-4.961 0.821,-4.621 0.82,-4.309 1.637,-7.66 0.82,-3.383 0.82,-3.097 0.821,-2.821 0.82,-2.558 0.82,-2.313 0.82,-2.07 0.821,-1.859 0.82,-1.641 0.82,-1.457 0.821,-1.281 0.828,-1.11 0.82,-0.972 0.82,-0.829 0.821,-0.71 0.82,-0.598 0.82,-0.5 0.821,-0.422 0.816,-0.34 0.82,-0.289 0.821,-0.223 0.82,-0.179 0.82,-0.149 0.821,-0.109 0.82,-0.082 0.82,-0.07 0.821,-0.039 0.82,-0.04 0.82,-0.019 0.821,-0.02 0.82,-0.011 0.816,-0.008 0.821,0 0.82,-0.012 25.383,0" /><path
             id="path34654"
             style="fill:none;stroke:#0000ff;stroke-opacity:1;stroke-width:11.52;stroke-linecap:square;stroke-linejoin:miter;stroke-miterlimit:3.25;stroke-dasharray:none"
             d="m 317.762,811.66 97.386,0" /><path
             id="path34656"
             style="fill:none;stroke:#0000ff;stroke-opacity:1;stroke-width:11.52;stroke-linecap:square;stroke-linejoin:miter;stroke-miterlimit:3.25;stroke-dasharray:none"
             d="m 420.648,811.66 21.18,0 0.813,0.012 0.82,0 0.809,0.008 0.82,0.011 0.808,0.02 0.821,0.027 0.812,0.032 0.821,0.05 0.808,0.059 0.809,0.09 0.82,0.109 0.813,0.141 0.82,0.191 0.808,0.219 0.821,0.281 0.808,0.352 0.821,0.418 0.808,0.5 0.821,0.59 0.812,0.71 0.82,0.821 0.809,0.961 0.762,1.019 0.758,1.16 0.761,1.321 0.758,1.468 0.762,1.649 0.758,1.84 0.761,2.019 0.758,2.242 0.762,2.461 0.762,2.68 0.757,2.918 0.762,3.172 0.758,3.418 0.762,3.691 1.519,8.192 0.762,4.519 0.758,4.797 1.519,10.473 0.762,5.679 0.758,5.969 1.519,12.813 0.762,6.84 0.762,7.117 1.519,15.062 3.039,33.188 0.758,8.883 0.762,9.089 1.519,18.731 3.039,39.288 6.082,81.78 0.758,10.13 0.762,10.05 1.52,19.73 0.761,9.65 0.75,9.48 1.52,18.35 0.758,8.84 0.761,8.58 1.52,16.33 0.762,7.72 0.757,7.38 1.52,13.74 0.832,6.83 0.82,6.38 0.828,5.91 0.821,5.42 0.82,4.91 0.828,4.41 0.82,3.87 0.832,3.34 0.821,2.79 0.82,2.24 0.828,1.68 0.821,1.11 0.832,0.55 0.82,-0.02 0.816,-0.59 0.832,-1.15 0.821,-1.72 0.828,-2.27 0.82,-2.83 0.82,-3.38 0.832,-3.91 0.821,-4.43 0.828,-4.95 0.82,-5.46 0.82,-5.93 0.829,-6.41 1.652,-14.17 0.82,-7.72 0.821,-8.11 1.648,-17.33 0.828,-9.17 0.82,-9.48 1.653,-19.78 3.289,-42.13 6.601,-88.59 0.821,-10.96 0.816,-10.86 1.652,-21.29 3.301,-40.309 0.821,-9.492 0.828,-9.231 1.64,-17.59 0.828,-8.339 0.821,-8.028 1.652,-15.062 0.77,-6.578 0.769,-6.27 1.539,-11.66 0.77,-5.371 0.769,-5.078 1.532,-9.274 0.769,-4.199 0.77,-3.918 0.769,-3.652 0.774,-3.379 0.769,-3.11 0.77,-2.871 0.769,-2.629 0.77,-2.402 0.769,-2.18 0.77,-1.968 0.769,-1.782 0.762,-1.589 0.77,-1.418 0.769,-1.25 0.77,-1.11 0.769,-0.98 0.774,-0.84 0.769,-0.742 0.77,-0.629 0.769,-0.539 0.77,-0.449 0.769,-0.391 0.77,-0.32 0.769,-0.262 0.762,-0.219 0.77,-0.172 0.769,-0.136 0.77,-0.114 0.769,-0.09 0.774,-0.058 0.769,-0.051 0.77,-0.039 0.769,-0.031 0.77,-0.02 0.769,-0.008 0.77,-0.011 0.769,-0.008 0.774,0 0.758,-0.012 25.339,0" /><path
             id="path34658"
             style="fill:none;stroke:#0000ff;stroke-opacity:1;stroke-width:11.52;stroke-linecap:square;stroke-linejoin:miter;stroke-miterlimit:3.25;stroke-dasharray:none"
             d="m 623.93,811.66 101.832,0" /><path
             id="path34660"
             style="fill:none;stroke:#0000ff;stroke-opacity:1;stroke-width:11.52;stroke-linecap:square;stroke-linejoin:miter;stroke-miterlimit:3.25;stroke-dasharray:none"
             d="m 735.41,811.66 16.801,0 0.758,0.012 0.761,0 0.77,0.008 0.762,0.011 0.769,0.008 0.758,0.02 0.762,0.019 0.769,0.043 0.758,0.047 0.762,0.063 0.832,0.089 0.828,0.122 0.828,0.148 0.82,0.191 0.832,0.239 0.829,0.289 0.832,0.371 0.82,0.441 0.828,0.528 0.832,0.632 0.828,0.739 0.821,0.879 0.832,1.011 0.828,1.168 0.832,1.34 0.816,1.524 0.832,1.726 0.828,1.942 0.832,2.16 0.821,2.422 0.828,2.668 0.832,2.941 0.828,3.219 0.82,3.519 0.832,3.832 0.828,4.141 0.832,4.469 0.821,4.8 0.828,5.129 0.832,5.481 1.648,11.988 0.828,6.52 0.832,6.871 1.661,14.75 3.308,33.429 0.821,9.11 0.832,9.39 1.66,19.563 3.308,41.678 0.821,10.84 0.828,10.96 1.66,22.18 3.312,44.72 0.821,11.1 0.828,11.01 1.66,21.65 3.309,41.07 0.812,9.48 0.809,9.18 1.629,17.42 0.812,8.19 0.809,7.81 1.629,14.42 0.812,6.57 0.809,6.13 0.808,5.65 0.821,5.18 0.812,4.69 0.809,4.18 0.808,3.67 0.821,3.14 0.812,2.61 0.809,2.07 0.808,1.53 0.821,0.98 0.812,0.42 0.809,-0.12 0.808,-0.68 0.821,-1.23 0.812,-1.78 0.809,-2.32 0.808,-2.85 0.821,-3.39 0.812,-3.9 0.809,-4.42 0.808,-4.91 0.813,-5.4 0.82,-5.88 0.809,-6.33 1.621,-13.97 0.82,-7.6 0.809,-7.98 1.621,-17.06 0.82,-9.02 0.809,-9.32 1.621,-19.45 3.25,-41.43 0.82,-10.74 0.809,-10.84 1.621,-21.88 3.25,-43.85 0.82,-10.84 0.809,-10.74 1.621,-21.09 3.25,-40.059 0.758,-8.84 0.761,-8.609 1.508,-16.524 0.762,-7.886 0.762,-7.633 1.507,-14.438 0.762,-6.8 0.758,-6.52 1.519,-12.16 0.75,-5.652 0.762,-5.348 1.52,-9.852 0.75,-4.488 0.761,-4.211 0.758,-3.941 0.762,-3.668 0.75,-3.41 0.758,-3.153 1.519,-5.578 0.762,-2.449 0.75,-2.231 0.762,-2.019 0.758,-1.832 0.761,-1.641 0.75,-1.468 0.758,-1.321 0.762,-1.16 0.758,-1.019 0.75,-0.891 0.761,-0.777 0.758,-0.68 0.762,-0.582 0.762,-0.488 0.75,-0.422 0.757,-0.352 0.762,-0.289 0.758,-0.238 0.75,-0.199 0.762,-0.161 0.757,-0.132 0.762,-0.098 0.75,-0.082 0.762,-0.059 0.758,-0.039 0.761,-0.043 0.75,-0.019 0.758,-0.02 0.762,-0.008 0.758,-0.011 0.761,-0.008 0.75,0 0.758,-0.012 25.231,0" /><path
             id="path34662"
             style="fill:none;stroke:#0000ff;stroke-opacity:1;stroke-width:11.52;stroke-linecap:square;stroke-linejoin:miter;stroke-miterlimit:3.25;stroke-dasharray:none"
             d="m 939.59,811.66 96.78,0" /><path
             id="path34664"
             style="fill:none;stroke:#0000ff;stroke-opacity:1;stroke-width:11.52;stroke-linecap:square;stroke-linejoin:miter;stroke-miterlimit:3.25;stroke-dasharray:none"
             d="m 1041.58,811.66 21.61,0 0.83,0.012 0.83,0 0.83,0.008 0.83,0.019 0.83,0.02 0.83,0.031 0.82,0.031 0.82,0.059 0.81,0.07 0.82,0.09 0.81,0.121 0.82,0.16 0.82,0.188 0.81,0.242 0.82,0.301 0.81,0.367 0.82,0.441 0.82,0.539 0.81,0.629 0.82,0.742 0.81,0.86 0.82,1.012 0.82,1.148 0.81,1.32 0.82,1.5 0.81,1.7 0.82,1.902 0.82,2.129 0.81,2.359 0.82,2.61 0.81,2.878 0.82,3.153 0.82,3.429 0.81,3.731 0.82,4.039 0.81,4.352 1.64,9.668 0.81,5.332 0.82,5.668 1.63,12.351 0.82,6.68 0.81,7.008 1.63,15.019 0.82,7.992 0.82,8.289 1.63,17.481 3.26,38.148 0.82,10.114 0.81,10.298 1.64,21.09 3.26,43.54 6.53,87.05 0.76,9.69 0.76,9.51 1.52,18.43 0.76,8.88 0.77,8.62 1.52,16.42 0.76,7.75 0.76,7.44 0.76,7.09 0.76,6.73 0.76,6.37 0.77,5.97 1.52,10.74 0.76,4.74 0.76,4.31 0.76,3.86 0.76,3.41 0.76,2.95 0.77,2.48 0.76,2 0.76,1.53 0.76,1.05 0.76,0.57 0.76,0.08 0.76,-0.41 0.76,-0.89 0.77,-1.37 0.76,-1.85 0.76,-2.33 0.76,-2.79 0.76,-3.26 0.76,-3.71 0.76,-4.16 0.76,-4.6 0.77,-5.03 1.52,-11.29 0.76,-6.23 0.76,-6.62 1.52,-14.3 0.76,-7.65 0.77,-7.96 1.52,-16.8 0.76,-8.8 0.76,-9.03 1.52,-18.71 3.05,-39.38 6.09,-81.95 0.82,-10.98 0.83,-10.88 1.65,-21.34 3.3,-40.4 0.83,-9.519 0.82,-9.25 1.65,-17.633 0.83,-8.359 0.82,-8.047 1.65,-15.102 0.83,-7.05 0.82,-6.7 0.83,-6.359 0.83,-6.012 0.82,-5.668 0.83,-5.32 1.65,-9.641 0.82,-4.332 0.83,-4 0.82,-3.699 0.83,-3.391 0.82,-3.109 0.83,-2.828 0.82,-2.563 0.83,-2.308 0.83,-2.078 0.82,-1.852 0.83,-1.64 0.82,-1.45 0.83,-1.281 0.82,-1.098 0.83,-0.961 0.82,-0.82 0.83,-0.711 0.82,-0.59 0.83,-0.488 0.82,-0.422 0.83,-0.34 0.82,-0.269 0.83,-0.219 0.83,-0.18 0.82,-0.14 0.83,-0.102 0.82,-0.078 0.83,-0.062 0.82,-0.047 0.83,-0.032 0.82,-0.031 0.83,-0.008 0.82,-0.011 0.83,-0.008 0.82,0 0.83,-0.012 25.19,0" /><path
             id="path34666"
             style="fill:none;stroke:#0000ff;stroke-opacity:1;stroke-width:11.52;stroke-linecap:square;stroke-linejoin:miter;stroke-miterlimit:3.25;stroke-dasharray:none"
             d="m 1246.6,811.66 100.38,0" /><path
             id="path34668"
             style="fill:none;stroke:#0000ff;stroke-opacity:1;stroke-width:11.52;stroke-linecap:square;stroke-linejoin:miter;stroke-miterlimit:3.25;stroke-dasharray:none"
             d="m 1349.12,811.66 24.47,0 0.77,0.012 0.76,0 0.77,0.008 0.76,0.011 0.77,0.008 0.76,0.02 0.77,0.031 0.76,0.039 0.77,0.051 0.76,0.07 0.77,0.09 0.76,0.109 0.77,0.141 0.76,0.172 0.77,0.219 0.76,0.257 0.77,0.321 0.76,0.383 0.77,0.449 0.76,0.539 0.77,0.621 0.76,0.73 0.77,0.84 0.76,0.969 0.76,1.102 0.77,1.238 0.76,1.398 0.77,1.582 0.76,1.75 0.77,1.95 0.76,2.152 0.77,2.367 0.76,2.602 0.77,2.828 0.76,3.082 0.77,3.328 1.53,7.473 0.76,4.148 0.77,4.43 1.53,9.718 0.76,5.313 0.77,5.598 1.53,12.089 0.76,6.493 0.77,6.781 1.53,14.418 3.05,32.082 0.77,8.637 0.76,8.871 1.53,18.371 3.06,38.819 0.83,10.89 0.83,11.01 1.66,22.26 3.31,44.78 0.83,11.1 0.83,10.99 1.66,21.6 3.32,40.87 0.83,9.57 0.82,9.27 1.66,17.51 0.83,8.2 0.83,7.81 1.66,14.32 0.83,6.49 0.83,6.01 0.82,5.52 0.83,5.01 0.83,4.49 0.83,3.96 0.83,3.42 0.83,2.87 0.83,2.31 0.83,1.74 0.83,1.17 0.83,0.6 0.82,0.02 0.83,-0.55 0.83,-1.12 0.83,-1.7 0.83,-2.26 0.83,-2.82 0.83,-3.37 0.83,-3.92 0.83,-4.45 0.82,-4.97 0.83,-5.47 0.83,-5.97 0.83,-6.45 0.83,-6.9 1.66,-15.12 0.83,-8.17 0.83,-8.55 1.65,-18.15 0.83,-9.55 0.83,-9.83 1.66,-20.42 3.32,-43.1 0.81,-10.88 0.81,-10.95 1.63,-22 3.26,-43.71 0.81,-10.72 0.81,-10.6 1.63,-20.722 3.26,-39 0.81,-9.136 0.81,-8.872 1.63,-16.871 0.82,-7.98 0.81,-7.66 1.63,-14.348 0.81,-6.68 0.81,-6.339 0.82,-6.012 0.81,-5.668 0.82,-5.344 0.81,-5 1.63,-9.039 0.81,-4.051 0.81,-3.738 0.82,-3.449 0.81,-3.16 0.82,-2.891 0.81,-2.629 0.81,-2.371 0.82,-2.148 0.81,-1.911 0.81,-1.711 0.82,-1.519 0.81,-1.332 0.82,-1.168 0.81,-1.02 0.81,-0.882 0.82,-0.75 0.81,-0.637 0.82,-0.543 0.81,-0.449 0.81,-0.371 0.82,-0.309 0.81,-0.25 0.81,-0.199 0.82,-0.16 0.81,-0.129 0.82,-0.09 0.81,-0.07 0.81,-0.063 0.82,-0.039 0.81,-0.031 0.81,-0.02 0.82,-0.008 0.76,-0.011 0.76,-0.008 0.76,0 0.75,-0.012 25.26,0" /><path
             id="path34670"
             style="fill:none;stroke:#0000ff;stroke-opacity:1;stroke-width:11.52;stroke-linecap:square;stroke-linejoin:miter;stroke-miterlimit:3.25;stroke-dasharray:none"
             d="m 1556.51,811.66 101.07,0" /><path
             id="path34672"
             style="fill:none;stroke:#0000ff;stroke-opacity:1;stroke-width:11.52;stroke-linecap:square;stroke-linejoin:miter;stroke-miterlimit:3.25;stroke-dasharray:none"
             d="m 1664.29,811.66 19.83,0 0.75,0.012 0.76,0 0.75,0.008 0.75,0.011 0.76,0.008 0.75,0.02 0.75,0.031 0.76,0.031 0.75,0.047 0.75,0.063 0.76,0.078 0.75,0.101 0.75,0.129 0.76,0.16 0.75,0.2 0.75,0.242 0.76,0.289 0.75,0.359 0.75,0.41 0.76,0.5 0.75,0.582 0.75,0.668 0.76,0.782 0.75,0.89 0.75,1.008 0.76,1.16 0.75,1.301 0.75,1.461 0.75,1.629 0.76,1.808 0.75,2.012 0.75,2.211 0.76,2.418 0.75,2.641 0.75,2.879 0.76,3.121 1.5,7 0.76,3.898 0.75,4.16 1.51,9.172 0.75,5.012 0.75,5.289 1.51,11.449 0.75,6.16 0.76,6.442 1.5,13.718 3.02,30.668 0.81,9.012 0.82,9.281 1.64,19.321 3.27,41.138 6.53,87.58 0.82,10.97 0.82,10.89 1.63,21.44 0.82,10.5 0.82,10.31 1.63,19.96 0.82,9.61 0.82,9.31 1.63,17.69 0.82,8.33 0.82,7.95 1.63,14.7 0.82,6.7 0.82,6.26 0.81,5.79 0.82,5.3 0.82,4.82 0.82,4.3 0.81,3.78 0.82,3.26 0.82,2.71 0.82,2.17 0.81,1.62 0.82,1.07 0.82,0.51 0.82,-0.06 0.81,-0.61 0.82,-1.16 0.82,-1.73 0.82,-2.27 0.81,-2.81 0.82,-3.35 0.82,-3.88 0.81,-4.4 0.82,-4.91 0.82,-5.39 0.82,-5.88 0.81,-6.34 1.64,-14 0.82,-7.63 0.81,-8.03 1.64,-17.13 0.76,-8.45 0.76,-8.72 1.53,-18.16 3.05,-38.63 6.1,-81.82 0.76,-10.25 0.77,-10.18 1.52,-20.09 3.05,-38.589 0.76,-9.211 0.77,-9.02 1.52,-17.378 3.05,-31.801 0.77,-7.281 0.76,-7 1.52,-13.129 0.77,-6.129 0.76,-5.84 1.52,-10.781 0.77,-4.961 0.76,-4.66 0.76,-4.379 0.76,-4.09 0.77,-3.821 0.76,-3.55 1.52,-6.328 0.77,-2.793 0.76,-2.559 0.76,-2.34 0.77,-2.121 0.76,-1.918 0.76,-1.73 0.76,-1.551 0.77,-1.391 0.76,-1.219 0.76,-1.082 0.76,-0.949 0.77,-0.828 0.76,-0.723 0.76,-0.609 0.76,-0.527 0.77,-0.442 0.82,-0.41 0.83,-0.332 0.83,-0.269 0.82,-0.207 0.83,-0.18 0.83,-0.133 0.82,-0.098 0.83,-0.082 0.83,-0.058 0.82,-0.039 0.83,-0.043 0.83,-0.02 0.82,-0.008 0.83,-0.011 0.83,-0.008 0.82,0 0.83,-0.012 25.08,0" /><path
             id="path34674"
             style="fill:none;stroke:#0000ff;stroke-opacity:1;stroke-width:11.52;stroke-linecap:square;stroke-linejoin:miter;stroke-miterlimit:3.25;stroke-dasharray:none"
             d="m 1866.43,811.66 101.76,0" /><path
             id="path34676"
             style="fill:none;stroke:#0000ff;stroke-opacity:1;stroke-width:11.52;stroke-linecap:square;stroke-linejoin:miter;stroke-miterlimit:3.25;stroke-dasharray:none"
             d="m 1976.67,811.66 18.06,0 0.82,0.012 0.82,0 0.83,0.008 0.82,0.011 0.82,0.02 0.82,0.019 0.82,0.04 0.82,0.039 0.82,0.07 0.82,0.082 0.82,0.109 0.82,0.141 0.82,0.18 0.83,0.23 0.82,0.277 0.82,0.34 0.82,0.422 0.82,0.5 0.82,0.602 0.82,0.707 0.82,0.832 0.82,0.961 0.82,1.109 0.82,1.277 0.83,1.454 0.82,1.648 0.82,1.852 0.82,2.07 0.82,2.308 0.82,2.559 0.82,2.82 0.82,3.102 0.82,3.379 0.82,3.672 0.83,3.988 0.82,4.301 0.82,4.629 0.82,4.949 0.82,5.293 0.82,5.629 1.64,12.289 0.77,6.199 0.76,6.492 1.54,13.867 3.06,31.071 0.77,8.41 0.76,8.66 1.54,17.992 3.06,38.249 0.77,9.94 0.76,10.07 1.54,20.41 3.06,41.38 6.13,80.28 0.77,9.38 0.76,9.17 1.53,17.61 0.77,8.41 0.77,8.11 1.53,15.27 0.77,7.13 0.76,6.76 0.77,6.38 0.76,6 0.77,5.58 0.77,5.17 0.76,4.74 0.77,4.3 0.77,3.84 0.76,3.39 0.77,2.92 0.76,2.44 0.77,1.97 0.77,1.48 0.76,0.99 0.77,0.51 0.77,0.01 0.76,-0.48 0.77,-0.97 0.76,-1.46 0.77,-1.94 0.77,-2.42 0.76,-2.9 0.77,-3.37 0.83,-4.16 0.83,-4.7 0.83,-5.21 0.83,-5.71 0.83,-6.2 0.83,-6.67 1.66,-14.69 0.83,-7.97 0.83,-8.36 1.66,-17.82 3.32,-39.31 0.83,-10.44 0.83,-10.64 1.66,-21.75 3.33,-44.63 6.64,-87.76 0.83,-10.34 0.83,-10.129 1.66,-19.539 0.83,-9.383 0.83,-9.098 1.66,-17.293 0.83,-8.18 0.83,-7.839 1.66,-14.68 0.83,-6.82 0.83,-6.481 1.66,-11.898 0.83,-5.418 0.83,-5.09 0.83,-4.742 0.83,-4.41 0.83,-4.09 0.83,-3.77 0.83,-3.469 0.84,-3.171 0.83,-2.891 0.83,-2.609 0.83,-2.372 0.83,-2.117 0.83,-1.89 0.83,-1.68 0.83,-1.481 0.83,-1.3 0.81,-1.11 0.82,-0.968 0.81,-0.832 0.82,-0.711 0.81,-0.598 0.82,-0.512 0.81,-0.418 0.82,-0.351 0.81,-0.282 0.82,-0.226 0.81,-0.192 0.82,-0.14 0.81,-0.121 0.82,-0.078 0.82,-0.071 0.81,-0.05 0.82,-0.032 0.81,-0.027 0.82,-0.02 0.81,-0.011 0.82,-0.008 0.81,0 0.82,-0.012 25.51,0" /><path
             id="path34678"
             style="fill:none;stroke:#0000ff;stroke-opacity:1;stroke-width:11.52;stroke-linecap:square;stroke-linejoin:miter;stroke-miterlimit:3.25;stroke-dasharray:none"
             d="m 2177.04,811.66 101.76,0" /><path
             id="path34680"
             style="fill:none;stroke:#0000ff;stroke-opacity:1;stroke-width:11.52;stroke-linecap:square;stroke-linejoin:miter;stroke-miterlimit:3.25;stroke-dasharray:none"
             d="m 2284.99,811.66 20.02,0 0.77,0.012 1.54,0 0.77,0.008 0.77,0.019 0.77,0.012 0.77,0.027 0.77,0.032 0.77,0.05 0.77,0.051 0.77,0.078 0.77,0.102 0.76,0.129 0.77,0.16 0.77,0.199 0.77,0.242 0.77,0.289 0.77,0.36 0.77,0.429 0.77,0.5 0.77,0.59 0.77,0.692 0.77,0.8 0.77,0.918 0.77,1.063 0.77,1.187 0.77,1.36 0.77,1.519 0.77,1.703 0.77,1.887 0.77,2.102 0.77,2.308 0.77,2.532 0.77,2.781 0.77,3.019 0.77,3.27 1.54,7.359 0.75,4 0.76,4.289 1.51,9.41 0.75,5.133 0.76,5.418 1.51,11.711 0.75,6.281 0.76,6.571 1.5,13.976 3.02,31.16 0.76,8.411 0.75,8.64 1.51,17.903 3.02,37.938 6.04,80.72 0.75,10.18 0.76,10.12 1.51,20.03 3.01,38.58 0.76,9.22 0.75,9 1.51,17.3 0.76,8.26 0.75,7.97 1.51,15.02 0.76,7.02 0.75,6.66 0.76,6.29 0.75,5.92 0.75,5.52 0.76,5.12 0.75,4.7 0.76,4.28 0.75,3.83 0.76,3.4 0.75,2.94 0.76,2.48 0.75,2.01 0.76,1.55 0.75,1.08 0.76,0.6 0.81,0.11 0.82,-0.45 0.82,-1.01 0.82,-1.57 0.82,-2.12 0.82,-2.66 0.82,-3.21 0.82,-3.74 0.81,-4.26 0.82,-4.77 0.82,-5.28 0.82,-5.75 0.82,-6.23 0.82,-6.68 1.64,-14.65 0.81,-7.93 0.82,-8.31 1.64,-17.67 3.28,-38.88 6.55,-86.28 0.81,-11.08 0.82,-11.05 1.64,-21.94 3.28,-42.55 0.81,-10.22 0.82,-10.031 1.64,-19.359 3.28,-35.54 0.81,-8.14 0.82,-7.828 1.64,-14.684 0.82,-6.828 0.82,-6.5 1.64,-11.98 0.81,-5.481 0.82,-5.141 0.82,-4.82 0.82,-4.476 0.82,-4.172 0.82,-3.86 1.64,-6.808 0.76,-2.793 0.76,-2.559 0.77,-2.332 0.76,-2.117 0.76,-1.922 0.77,-1.719 0.76,-1.55 0.77,-1.379 0.76,-1.219 0.76,-1.07 0.77,-0.954 0.76,-0.82 0.77,-0.707 0.76,-0.609 0.76,-0.532 0.77,-0.441 0.76,-0.367 0.77,-0.313 0.76,-0.257 0.76,-0.211 0.77,-0.161 0.76,-0.14 0.77,-0.11 0.76,-0.082 0.76,-0.07 0.77,-0.047 0.76,-0.031 0.77,-0.031 0.76,-0.02 0.76,-0.008 0.77,-0.011 0.76,-0.008 0.77,0 0.76,-0.012 25.53,0" /><path
             id="path34682"
             style="fill:none;stroke:#0000ff;stroke-opacity:1;stroke-width:11.52;stroke-linecap:square;stroke-linejoin:miter;stroke-miterlimit:3.25;stroke-dasharray:none"
             d="m 2487.26,811.66 51.17,0" /><path
             id="path34684"
             style="fill:none;stroke:#000000;stroke-opacity:1;stroke-width:3.6;stroke-linecap:butt;stroke-linejoin:miter;stroke-miterlimit:3.25;stroke-dasharray:none"
             d="m 53.5703,811.66 0,29.051" /></g></g><g
         id="g34698"><g
           clip-path="url(#clipPath34702)"
           id="g34700"><path
             id="path34706"
             style="fill:none;stroke:#000000;stroke-opacity:1;stroke-width:3.6;stroke-linecap:butt;stroke-linejoin:miter;stroke-miterlimit:3.25;stroke-dasharray:none"
             d="m 208.871,811.66 0,17.43" /><path
             id="path34708"
             style="fill:none;stroke:#000000;stroke-opacity:1;stroke-width:3.6;stroke-linecap:butt;stroke-linejoin:miter;stroke-miterlimit:3.25;stroke-dasharray:none"
             d="m 364.18,811.66 0,17.43" /><path
             id="path34710"
             style="fill:none;stroke:#000000;stroke-opacity:1;stroke-width:3.6;stroke-linecap:butt;stroke-linejoin:miter;stroke-miterlimit:3.25;stroke-dasharray:none"
             d="m 519.48,811.66 0,17.43" /><path
             id="path34712"
             style="fill:none;stroke:#000000;stroke-opacity:1;stroke-width:3.6;stroke-linecap:butt;stroke-linejoin:miter;stroke-miterlimit:3.25;stroke-dasharray:none"
             d="m 674.781,811.66 0,29.051" /></g></g><g
         id="g34726"><g
           clip-path="url(#clipPath34730)"
           id="g34728"><path
             id="path34734"
             style="fill:none;stroke:#000000;stroke-opacity:1;stroke-width:3.6;stroke-linecap:butt;stroke-linejoin:miter;stroke-miterlimit:3.25;stroke-dasharray:none"
             d="m 830.09,811.66 0,17.43" /><path
             id="path34736"
             style="fill:none;stroke:#000000;stroke-opacity:1;stroke-width:3.6;stroke-linecap:butt;stroke-linejoin:miter;stroke-miterlimit:3.25;stroke-dasharray:none"
             d="m 985.391,811.66 0,17.43" /><path
             id="path34738"
             style="fill:none;stroke:#000000;stroke-opacity:1;stroke-width:3.6;stroke-linecap:butt;stroke-linejoin:miter;stroke-miterlimit:3.25;stroke-dasharray:none"
             d="m 1140.7,811.66 0,17.43" /><path
             id="path34740"
             style="fill:none;stroke:#000000;stroke-opacity:1;stroke-width:3.6;stroke-linecap:butt;stroke-linejoin:miter;stroke-miterlimit:3.25;stroke-dasharray:none"
             d="m 1296,811.66 0,29.051" /><path
             id="path34742"
             style="fill:none;stroke:#000000;stroke-opacity:1;stroke-width:3.6;stroke-linecap:butt;stroke-linejoin:miter;stroke-miterlimit:3.25;stroke-dasharray:none"
             d="m 1451.3,811.66 0,17.43" /><path
             id="path34744"
             style="fill:none;stroke:#000000;stroke-opacity:1;stroke-width:3.6;stroke-linecap:butt;stroke-linejoin:miter;stroke-miterlimit:3.25;stroke-dasharray:none"
             d="m 1606.61,811.66 0,17.43" /><path
             id="path34746"
             style="fill:none;stroke:#000000;stroke-opacity:1;stroke-width:3.6;stroke-linecap:butt;stroke-linejoin:miter;stroke-miterlimit:3.25;stroke-dasharray:none"
             d="m 1761.91,811.66 0,17.43" /><path
             id="path34748"
             style="fill:none;stroke:#000000;stroke-opacity:1;stroke-width:3.6;stroke-linecap:butt;stroke-linejoin:miter;stroke-miterlimit:3.25;stroke-dasharray:none"
             d="m 1917.22,811.66 0,29.051" /></g></g><g
         id="g34760"><g
           clip-path="url(#clipPath34764)"
           id="g34762"><path
             id="path34768"
             style="fill:none;stroke:#000000;stroke-opacity:1;stroke-width:3.6;stroke-linecap:butt;stroke-linejoin:miter;stroke-miterlimit:3.25;stroke-dasharray:none"
             d="m 2072.52,811.66 0,17.43" /><path
             id="path34770"
             style="fill:none;stroke:#000000;stroke-opacity:1;stroke-width:3.6;stroke-linecap:butt;stroke-linejoin:miter;stroke-miterlimit:3.25;stroke-dasharray:none"
             d="m 2227.82,811.66 0,17.43" /><path
             id="path34772"
             style="fill:none;stroke:#000000;stroke-opacity:1;stroke-width:3.6;stroke-linecap:butt;stroke-linejoin:miter;stroke-miterlimit:3.25;stroke-dasharray:none"
             d="m 2383.13,811.66 0,17.43" /><path
             id="path34774"
             style="fill:none;stroke:#000000;stroke-opacity:1;stroke-width:3.6;stroke-linecap:butt;stroke-linejoin:miter;stroke-miterlimit:3.25;stroke-dasharray:none"
             d="m 2538.43,811.66 0,29.051" /></g></g><g
         id="g34786"><g
           clip-path="url(#clipPath34790)"
           id="g34788"><path
             id="path34794"
             style="fill:none;stroke:#000000;stroke-opacity:1;stroke-width:3.6;stroke-linecap:butt;stroke-linejoin:miter;stroke-miterlimit:3.25;stroke-dasharray:none"
             d="m 1.80078,811.66 2588.39922,0" /><path
             id="path34796"
             style="fill:none;stroke:#000000;stroke-opacity:1;stroke-width:3.6;stroke-linecap:butt;stroke-linejoin:miter;stroke-miterlimit:3.25;stroke-dasharray:none"
             d="m 1296,11.8008 17.43,0" /><path
             id="path34798"
             style="fill:none;stroke:#000000;stroke-opacity:1;stroke-width:3.6;stroke-linecap:butt;stroke-linejoin:miter;stroke-miterlimit:3.25;stroke-dasharray:none"
             d="m 1296,68.9297 17.43,0" /><path
             id="path34800"
             style="fill:none;stroke:#000000;stroke-opacity:1;stroke-width:3.6;stroke-linecap:butt;stroke-linejoin:miter;stroke-miterlimit:3.25;stroke-dasharray:none"
             d="m 1296,126.07 29.05,0" /></g></g><g
         id="g34818"><g
           clip-path="url(#clipPath34822)"
           id="g34820"><path
             id="path34826"
             style="fill:none;stroke:#000000;stroke-opacity:1;stroke-width:3.6;stroke-linecap:butt;stroke-linejoin:miter;stroke-miterlimit:3.25;stroke-dasharray:none"
             d="m 1296,183.199 17.43,0" /><path
             id="path34828"
             style="fill:none;stroke:#000000;stroke-opacity:1;stroke-width:3.6;stroke-linecap:butt;stroke-linejoin:miter;stroke-miterlimit:3.25;stroke-dasharray:none"
             d="m 1296,240.332 17.43,0" /><path
             id="path34830"
             style="fill:none;stroke:#000000;stroke-opacity:1;stroke-width:3.6;stroke-linecap:butt;stroke-linejoin:miter;stroke-miterlimit:3.25;stroke-dasharray:none"
             d="m 1296,297.461 17.43,0" /><path
             id="path34832"
             style="fill:none;stroke:#000000;stroke-opacity:1;stroke-width:3.6;stroke-linecap:butt;stroke-linejoin:miter;stroke-miterlimit:3.25;stroke-dasharray:none"
             d="m 1296,354.602 29.05,0" /></g></g><g
         id="g34850"><g
           clip-path="url(#clipPath34854)"
           id="g34852"><path
             id="path34858"
             style="fill:none;stroke:#000000;stroke-opacity:1;stroke-width:3.6;stroke-linecap:butt;stroke-linejoin:miter;stroke-miterlimit:3.25;stroke-dasharray:none"
             d="m 1296,411.73 17.43,0" /><path
             id="path34860"
             style="fill:none;stroke:#000000;stroke-opacity:1;stroke-width:3.6;stroke-linecap:butt;stroke-linejoin:miter;stroke-miterlimit:3.25;stroke-dasharray:none"
             d="m 1296,468.859 17.43,0" /><path
             id="path34862"
             style="fill:none;stroke:#000000;stroke-opacity:1;stroke-width:3.6;stroke-linecap:butt;stroke-linejoin:miter;stroke-miterlimit:3.25;stroke-dasharray:none"
             d="m 1296,526 17.43,0" /><path
             id="path34864"
             style="fill:none;stroke:#000000;stroke-opacity:1;stroke-width:3.6;stroke-linecap:butt;stroke-linejoin:miter;stroke-miterlimit:3.25;stroke-dasharray:none"
             d="m 1296,583.129 29.05,0" /></g></g><g
         id="g34882"><g
           clip-path="url(#clipPath34886)"
           id="g34884"><path
             id="path34890"
             style="fill:none;stroke:#000000;stroke-opacity:1;stroke-width:3.6;stroke-linecap:butt;stroke-linejoin:miter;stroke-miterlimit:3.25;stroke-dasharray:none"
             d="m 1296,640.262 17.43,0" /><path
             id="path34892"
             style="fill:none;stroke:#000000;stroke-opacity:1;stroke-width:3.6;stroke-linecap:butt;stroke-linejoin:miter;stroke-miterlimit:3.25;stroke-dasharray:none"
             d="m 1296,697.391 17.43,0" /><path
             id="path34894"
             style="fill:none;stroke:#000000;stroke-opacity:1;stroke-width:3.6;stroke-linecap:butt;stroke-linejoin:miter;stroke-miterlimit:3.25;stroke-dasharray:none"
             d="m 1296,754.531 17.43,0" /><path
             id="path34896"
             style="fill:none;stroke:#000000;stroke-opacity:1;stroke-width:3.6;stroke-linecap:butt;stroke-linejoin:miter;stroke-miterlimit:3.25;stroke-dasharray:none"
             d="m 1296,811.66 29.05,0" /><path
             id="path34898"
             style="fill:none;stroke:#000000;stroke-opacity:1;stroke-width:3.6;stroke-linecap:butt;stroke-linejoin:miter;stroke-miterlimit:3.25;stroke-dasharray:none"
             d="m 1296,868.789 17.43,0" /><path
             id="path34900"
             style="fill:none;stroke:#000000;stroke-opacity:1;stroke-width:3.6;stroke-linecap:butt;stroke-linejoin:miter;stroke-miterlimit:3.25;stroke-dasharray:none"
             d="m 1296,925.93 17.43,0" /><path
             id="path34902"
             style="fill:none;stroke:#000000;stroke-opacity:1;stroke-width:3.6;stroke-linecap:butt;stroke-linejoin:miter;stroke-miterlimit:3.25;stroke-dasharray:none"
             d="m 1296,983.059 17.43,0" /><path
             id="path34904"
             style="fill:none;stroke:#000000;stroke-opacity:1;stroke-width:3.6;stroke-linecap:butt;stroke-linejoin:miter;stroke-miterlimit:3.25;stroke-dasharray:none"
             d="m 1296,1040.19 29.05,0" /></g></g><g
         id="g34920"><g
           clip-path="url(#clipPath34924)"
           id="g34922"><path
             id="path34928"
             style="fill:none;stroke:#000000;stroke-opacity:1;stroke-width:3.6;stroke-linecap:butt;stroke-linejoin:miter;stroke-miterlimit:3.25;stroke-dasharray:none"
             d="m 1296,1097.32 17.43,0" /><path
             id="path34930"
             style="fill:none;stroke:#000000;stroke-opacity:1;stroke-width:3.6;stroke-linecap:butt;stroke-linejoin:miter;stroke-miterlimit:3.25;stroke-dasharray:none"
             d="m 1296,1154.46 17.43,0" /><path
             id="path34932"
             style="fill:none;stroke:#000000;stroke-opacity:1;stroke-width:3.6;stroke-linecap:butt;stroke-linejoin:miter;stroke-miterlimit:3.25;stroke-dasharray:none"
             d="m 1296,1211.59 17.43,0" /><path
             id="path34934"
             style="fill:none;stroke:#000000;stroke-opacity:1;stroke-width:3.6;stroke-linecap:butt;stroke-linejoin:miter;stroke-miterlimit:3.25;stroke-dasharray:none"
             d="m 1296,1268.72 29.05,0" /></g></g><g
         id="g34950"><g
           clip-path="url(#clipPath34954)"
           id="g34952"><path
             id="path34958"
             style="fill:none;stroke:#000000;stroke-opacity:1;stroke-width:3.6;stroke-linecap:butt;stroke-linejoin:miter;stroke-miterlimit:3.25;stroke-dasharray:none"
             d="m 1296,1325.86 17.43,0" /><path
             id="path34960"
             style="fill:none;stroke:#000000;stroke-opacity:1;stroke-width:3.6;stroke-linecap:butt;stroke-linejoin:miter;stroke-miterlimit:3.25;stroke-dasharray:none"
             d="m 1296,1382.99 17.43,0" /><path
             id="path34962"
             style="fill:none;stroke:#000000;stroke-opacity:1;stroke-width:3.6;stroke-linecap:butt;stroke-linejoin:miter;stroke-miterlimit:3.25;stroke-dasharray:none"
             d="m 1296,1440.12 17.43,0" /><path
             id="path34964"
             style="fill:none;stroke:#000000;stroke-opacity:1;stroke-width:3.6;stroke-linecap:butt;stroke-linejoin:miter;stroke-miterlimit:3.25;stroke-dasharray:none"
             d="m 1296,1497.25 29.05,0" /></g></g><g
         id="g34980"><g
           clip-path="url(#clipPath34984)"
           id="g34982"><path
             id="path34988"
             style="fill:none;stroke:#000000;stroke-opacity:1;stroke-width:3.6;stroke-linecap:butt;stroke-linejoin:miter;stroke-miterlimit:3.25;stroke-dasharray:none"
             d="m 1296,1554.39 17.43,0" /><path
             id="path34990"
             style="fill:none;stroke:#000000;stroke-opacity:1;stroke-width:3.6;stroke-linecap:butt;stroke-linejoin:miter;stroke-miterlimit:3.25;stroke-dasharray:none"
             d="m 1296,1611.52 17.43,0" /><path
             id="path34992"
             style="fill:none;stroke:#000000;stroke-opacity:1;stroke-width:3.6;stroke-linecap:butt;stroke-linejoin:miter;stroke-miterlimit:3.25;stroke-dasharray:none"
             d="m 1296,11.8008 0,1599.7192" /></g></g><g
         transform="matrix(1.9999809,0,0,0.771065,-2868.4682,503.60094)"
         id="g34994"><g
           clip-path="url(#clipPath34998)"
           id="g34996"><path
             inkscape:connector-curvature="0"
             id="path35002"
             style="fill:none;stroke:#0000ff;stroke-width:11.52000046;stroke-linecap:square;stroke-linejoin:miter;stroke-miterlimit:3.25;stroke-opacity:1;stroke-dasharray:none"
             d="m 2714.28,809 132.48,0" /></g></g><g
         id="g35154"
         transform="matrix(7.9998522,0,0,-7.9998522,2210.7971,2535.1089)"><g
           word-spacing="normal"
           letter-spacing="normal"
           font-size-adjust="none"
           font-stretch="normal"
           font-weight="normal"
           font-variant="normal"
           font-style="normal"
           stroke-miterlimit="10.433"
           xml:space="preserve"
           transform="matrix(0.29107143,0,0,-0.29107143,-50.9375,298.125)"
           id="content"
           style="font-style:normal;font-variant:normal;font-weight:normal;font-stretch:normal;letter-spacing:normal;word-spacing:normal;text-anchor:start;fill:none;stroke:#000000;stroke-linecap:butt;stroke-linejoin:miter;stroke-miterlimit:10.43299961;stroke-opacity:1;stroke-dasharray:none;stroke-dashoffset:0"><path
             id="path35157"
             d="m 479.54,439.48 0,0.02 0,0.02 0.01,0.04 0.02,0.04 0.01,0.05 0.01,0.04 0.01,0.05 0.01,0.05 0.01,0.05 0.01,0.05 0.01,0.05 0.01,0.05 0.01,0.05 0.01,0.05 0,0.04 0,0.05 0.01,0.03 0,0.02 c 0,0.5 -0.35,0.55 -0.6,0.55 -0.5,0 -0.54,-0.11 -0.75,-1 l -8.26,-32.94 c -3.78,0.45 -5.68,2.3 -5.68,5.59 0,0.99 0,2.28 2.69,9.27 0.21,0.59 0.55,1.44 0.55,2.44 0,2.23 -1.59,4.07 -4.09,4.07 -4.74,0 -6.58,-7.21 -6.58,-7.67 0,-0.5 0.5,-0.5 0.61,-0.5 0.5,0 0.54,0.11 0.79,0.91 1.35,4.73 3.33,6.17 5.03,6.17 0.4,0 1.25,0 1.25,-1.59 0,-1.3 -0.5,-2.53 -1.15,-4.28 -2.39,-6.29 -2.39,-7.58 -2.39,-8.43 0,-4.73 3.89,-6.78 8.67,-7.07 -0.41,-1.79 -0.41,-1.89 -1.09,-4.54 -0.16,-0.54 -1.16,-4.57 -1.16,-4.73 0,-0.05 0,-0.5 0.61,-0.5 0.09,0 0.34,0 0.44,0.2 0.15,0.1 0.45,1.35 0.61,2.05 l 1.89,7.42 c 1.84,0 6.22,0 10.9,5.33 2.05,2.3 3.1,4.48 3.64,5.98 0.46,1.24 1.55,5.58 1.55,7.77 0,2.8 -1.34,3.48 -2.2,3.48 -1.24,0 -2.49,-1.29 -2.49,-2.39 0,-0.64 0.3,-0.93 0.75,-1.34 0.55,-0.55 1.8,-1.84 1.8,-4.23 0,-3.19 -2.59,-7.27 -4.34,-9.07 -4.38,-4.43 -7.57,-4.43 -9.36,-4.43 z"
             inkscape:connector-curvature="0"
             style="fill:#000000;stroke-width:0" /><path
             id="path35159"
             d="m 504.06,406.64 h 10.66 c 0.45,0 1.28,0 1.28,0.84 0,0.86 -0.8,0.86 -1.28,0.86 h -10.66 v 10.7 c 0,0.46 0,1.28 -0.84,1.28 -0.88,0 -0.88,-0.79 -0.88,-1.28 v -10.7 h -10.68 c -0.46,0 -1.3,0 -1.3,-0.83 0,-0.87 0.8,-0.87 1.3,-0.87 h 10.68 v -10.71 c 0,-0.45 0,-1.28 0.85,-1.28 0.87,0 0.87,0.8 0.87,1.28 z"
             inkscape:connector-curvature="0"
             style="fill:#000000;stroke-width:0" /><path
             id="path35161"
             d="m 537.52,394.25 0,0.02 0,0.03 0,0.01 0,0.02 -0.01,0.01 0,0.02 -0.01,0.01 0,0.02 -0.01,0.02 -0.01,0.02 -0.01,0.02 -0.02,0.03 -0.01,0.02 -0.02,0.03 -0.02,0.03 -0.03,0.03 -0.02,0.03 -0.03,0.04 -0.02,0.02 -0.02,0.02 -0.01,0.02 -0.02,0.02 -0.02,0.02 -0.02,0.03 -0.02,0.02 -0.02,0.02 -0.03,0.03 -0.02,0.02 -0.02,0.03 -0.03,0.03 -0.03,0.03 -0.02,0.03 -0.03,0.03 -0.03,0.03 -0.03,0.03 -0.03,0.03 -0.04,0.04 -0.03,0.03 -0.04,0.04 -0.03,0.03 -0.04,0.04 -0.04,0.04 c -6.22,6.28 -7.81,15.69 -7.81,23.31 0,8.67 1.89,17.35 8.01,23.56 0.64,0.61 0.64,0.71 0.64,0.86 0,0.35 -0.18,0.49 -0.48,0.49 -0.5,0 -4.99,-3.38 -7.92,-9.7 -2.55,-5.49 -3.14,-11.02 -3.14,-15.21 0,-3.89 0.54,-9.9 3.28,-15.54 2.98,-6.13 7.28,-9.36 7.78,-9.36 0.3,0 0.48,0.14 0.48,0.5 z"
             inkscape:connector-curvature="0"
             style="fill:#000000;stroke-width:0" /><path
             id="path35163"
             d="m 562.87,427.67 0,0.02 0,0.02 0,0.02 -0.01,0.02 0,0.02 0,0.02 -0.01,0.02 -0.01,0.02 0,0.02 -0.01,0.02 -0.01,0.02 -0.01,0.03 -0.01,0.02 -0.02,0.02 -0.01,0.02 -0.01,0.01 -0.02,0.02 -0.02,0.02 -0.01,0.02 -0.02,0.01 -0.02,0.02 -0.02,0.01 -0.03,0.02 -0.02,0.01 -0.02,0.01 -0.03,0.01 -0.03,0.01 -0.02,0 -0.03,0.01 -0.03,0 -0.04,0.01 -0.01,0 -0.02,0 c -0.55,0 -2.53,-1.99 -3.37,-3.44 -1.11,2.69 -3.05,3.48 -4.65,3.48 v -1.09 c 3.24,0 3.94,-4.03 3.94,-4.37 0,-0.32 -2.73,-11.22 -2.89,-11.43 -0.75,-1.39 -3.53,-4.57 -6.33,-4.57 h 0 c -2.98,0 -3.18,3.84 -3.18,4.68 0,2.39 1.43,7.82 2.29,9.91 1.54,3.69 4.13,5.78 6.17,5.78 v 1.09 c -5.87,0 -12,-7.37 -12,-14.59 0,-4.87 2.94,-7.97 6.57,-7.97 2.15,0 4.09,1.19 5.89,2.99 -0.46,-1.74 -2.09,-8.47 -2.25,-8.93 -0.39,-1.39 -0.8,-1.59 -3.58,-1.64 -0.66,0 -1.16,0 -1.16,-1 0,-0.04 0,-0.54 0.66,-0.54 1.59,0 3.33,0.15 4.99,0.15 1.68,0 3.48,-0.15 5.12,-0.15 0.25,0 0.89,0 0.89,1 0,0.54 -0.48,0.54 -1.28,0.54 -2.41,0 -2.41,0.36 -2.41,0.8 0,0.36 0.11,0.66 0.21,1.09 z"
             inkscape:connector-curvature="0"
             style="fill:#000000;stroke-width:0" /><path
             id="path35165"
             d="m 578.75,418.65 -0.01,0.37 0,0.39 -0.01,0.39 -0.01,0.41 -0.04,0.84 -0.06,0.88 -0.08,0.92 -0.11,0.95 -0.14,0.97 -0.16,1.01 -0.2,1.02 -0.23,1.03 -0.26,1.05 -0.31,1.06 -0.35,1.07 -0.39,1.07 -0.21,0.53 -0.23,0.53 -0.24,0.53 -0.24,0.53 c -2.99,6.12 -7.27,9.36 -7.77,9.36 -0.3,0 -0.5,-0.19 -0.5,-0.49 0,-0.15 0,-0.25 0.94,-1.15 4.89,-4.92 7.73,-12.85 7.73,-23.27 0,-8.51 -1.84,-17.28 -8.03,-23.56 -0.64,-0.59 -0.64,-0.7 -0.64,-0.84 0,-0.3 0.2,-0.5 0.5,-0.5 0.5,0 4.97,3.39 7.92,9.71 2.53,5.47 3.13,11 3.13,15.19 z"
             inkscape:connector-curvature="0"
             style="fill:#000000;stroke-width:0" /></g></g></g></g></svg>