<?xml version="1.0" encoding="UTF-8" standalone="no"?>
<!-- Created with Inkscape (http://www.inkscape.org/) -->

<svg
   xmlns:dc="http://purl.org/dc/elements/1.1/"
   xmlns:cc="http://creativecommons.org/ns#"
   xmlns:rdf="http://www.w3.org/1999/02/22-rdf-syntax-ns#"
   xmlns:svg="http://www.w3.org/2000/svg"
   xmlns="http://www.w3.org/2000/svg"
   xmlns:sodipodi="http://sodipodi.sourceforge.net/DTD/sodipodi-0.dtd"
   xmlns:inkscape="http://www.inkscape.org/namespaces/inkscape"
   id="svg31363"
   version="1.1"
   inkscape:version="0.48.4 r9939"
   width="415"
   height="203.75"
   xml:space="preserve"
   sodipodi:docname="zeroOne.svg"><sodipodi:namedview
     pagecolor="#ffffff"
     bordercolor="#666666"
     borderopacity="1"
     objecttolerance="10"
     gridtolerance="10"
     guidetolerance="10"
     inkscape:pageopacity="0"
     inkscape:pageshadow="2"
     inkscape:window-width="1855"
     inkscape:window-height="1176"
     id="namedview31365"
     showgrid="false"
     inkscape:zoom="1.9566265"
     inkscape:cx="242.72287"
     inkscape:cy="55.846522"
     inkscape:window-x="65"
     inkscape:window-y="24"
     inkscape:window-maximized="1"
     inkscape:current-layer="g31373" /><metadata
     id="metadata31369"><rdf:RDF><cc:Work
         rdf:about=""><dc:format>image/svg+xml</dc:format><dc:type
           rdf:resource="http://purl.org/dc/dcmitype/StillImage" /><dc:title></dc:title></cc:Work></rdf:RDF></metadata><defs
     id="defs31367"><clipPath
       clipPathUnits="userSpaceOnUse"
       id="clipPath31379"><path
         d="m 0,10 2600,0 0,1610 L 0,1620 0,10 z"
         id="path31381" /></clipPath><clipPath
       clipPathUnits="userSpaceOnUse"
       id="clipPath31425"><path
         d="m 0,690 120,0 0,120 -120,0 0,-120 z"
         id="path31427" /></clipPath><clipPath
       clipPathUnits="userSpaceOnUse"
       id="clipPath31437"><path
         d="m 0,10 2600,0 0,1610 L 0,1620 0,10 z"
         id="path31439" /></clipPath><clipPath
       clipPathUnits="userSpaceOnUse"
       id="clipPath31453"><path
         d="m 610,690 130,0 0,120 -130,0 0,-120 z"
         id="path31455" /></clipPath><clipPath
       clipPathUnits="userSpaceOnUse"
       id="clipPath31465"><path
         d="m 0,10 2600,0 0,1610 L 0,1620 0,10 z"
         id="path31467" /></clipPath><clipPath
       clipPathUnits="userSpaceOnUse"
       id="clipPath31489"><path
         d="m 1880,690 80,0 0,120 -80,0 0,-120 z"
         id="path31491" /></clipPath><clipPath
       clipPathUnits="userSpaceOnUse"
       id="clipPath31499"><path
         d="m 0,10 2600,0 0,1610 L 0,1620 0,10 z"
         id="path31501" /></clipPath><clipPath
       clipPathUnits="userSpaceOnUse"
       id="clipPath31515"><path
         d="m 2500,690 80,0 0,120 -80,0 0,-120 z"
         id="path31517" /></clipPath><clipPath
       clipPathUnits="userSpaceOnUse"
       id="clipPath31525"><path
         d="m 0,10 2600,0 0,1610 L 0,1620 0,10 z"
         id="path31527" /></clipPath><clipPath
       clipPathUnits="userSpaceOnUse"
       id="clipPath31541"><path
         d="m 1080,70 210,0 0,120 -210,0 0,-120 z"
         id="path31543" /></clipPath><clipPath
       clipPathUnits="userSpaceOnUse"
       id="clipPath31557"><path
         d="m 0,10 2600,0 0,1610 L 0,1620 0,10 z"
         id="path31559" /></clipPath><clipPath
       clipPathUnits="userSpaceOnUse"
       id="clipPath31573"><path
         d="m 1080,290 210,0 0,120 -210,0 0,-120 z"
         id="path31575" /></clipPath><clipPath
       clipPathUnits="userSpaceOnUse"
       id="clipPath31589"><path
         d="m 0,10 2600,0 0,1610 L 0,1620 0,10 z"
         id="path31591" /></clipPath><clipPath
       clipPathUnits="userSpaceOnUse"
       id="clipPath31605"><path
         d="m 1080,520 210,0 0,120 -210,0 0,-120 z"
         id="path31607" /></clipPath><clipPath
       clipPathUnits="userSpaceOnUse"
       id="clipPath31621"><path
         d="m 0,10 2600,0 0,1610 L 0,1620 0,10 z"
         id="path31623" /></clipPath><clipPath
       clipPathUnits="userSpaceOnUse"
       id="clipPath31645"><path
         d="m 1130,980 160,0 0,120 -160,0 0,-120 z"
         id="path31647" /></clipPath><clipPath
       clipPathUnits="userSpaceOnUse"
       id="clipPath31659"><path
         d="m 0,10 2600,0 0,1610 L 0,1620 0,10 z"
         id="path31661" /></clipPath><clipPath
       clipPathUnits="userSpaceOnUse"
       id="clipPath31675"><path
         d="m 1130,1210 160,0 0,120 -160,0 0,-120 z"
         id="path31677" /></clipPath><clipPath
       clipPathUnits="userSpaceOnUse"
       id="clipPath31689"><path
         d="m 0,10 2600,0 0,1610 L 0,1620 0,10 z"
         id="path31691" /></clipPath><clipPath
       clipPathUnits="userSpaceOnUse"
       id="clipPath31705"><path
         d="m 1130,1440 160,0 0,120 -160,0 0,-120 z"
         id="path31707" /></clipPath><clipPath
       clipPathUnits="userSpaceOnUse"
       id="clipPath31719"><path
         d="m 0,10 2600,0 0,1610 L 0,1620 0,10 z"
         id="path31721" /></clipPath><clipPath
       clipPathUnits="userSpaceOnUse"
       id="clipPath31733"><path
         d="m 2700,860 300,0 0,90 -300,0 0,-90 z"
         id="path31735" /></clipPath><clipPath
       clipPathUnits="userSpaceOnUse"
       id="clipPath31753"><path
         d="m 2700,700 300,0 0,90 -300,0 0,-90 z"
         id="path31755" /></clipPath></defs><g
     id="g31371"
     inkscape:groupmode="layer"
     inkscape:label="ink_ext_XXXXXX"
     transform="matrix(1.25,0,0,-1.25,0,203.75)"><g
       id="g31373"
       transform="scale(0.1,0.1)"><g
         id="g31375"><g
           id="g31377"
           clip-path="url(#clipPath31379)"><path
             d="m 53.5703,811.66 361.5777,0"
             style="fill:none;stroke:#ff0000;stroke-opacity:1;stroke-width:11.52;stroke-linecap:square;stroke-linejoin:miter;stroke-miterlimit:3.25;stroke-dasharray:28.8,28.8;stroke-dashoffset:0"
             id="path31383" /><path
             d="m 420.648,811.66 20.364,0 0.816,0.012 0.813,0 0.82,0.008 0.809,0.011 0.82,0.02 0.808,0.019 0.821,0.04 0.812,0.05 0.821,0.071 0.808,0.089 0.809,0.122 0.82,0.16 0.813,0.199 0.82,0.25 0.808,0.328 0.821,0.391 0.808,0.492 0.821,0.59 0.808,0.707 0.821,0.84 0.812,1 0.82,1.16 0.809,1.359 0.762,1.442 0.758,1.652 0.761,1.859 0.758,2.078 0.762,2.332 0.758,2.598 0.761,2.871 0.758,3.16 0.762,3.469 0.762,3.801 0.757,4.129 0.762,4.48 0.758,4.84 0.762,5.211 1.519,11.59 0.762,6.39 0.758,6.79 1.519,14.808 0.762,8.031 0.758,8.442 1.519,18.121 0.762,9.668 0.762,10.07 1.519,21.301 3.039,46.939 0.758,12.56 0.762,12.84 1.519,26.5 3.039,55.56 6.082,115.65 0.758,14.33 0.762,14.21 1.52,27.91 0.761,13.65 0.75,13.4 1.52,25.95 0.758,12.5 0.761,12.14 1.52,23.09 0.762,10.91 0.757,10.45 1.52,19.43 0.832,9.66 0.82,9.02 0.828,8.36 0.821,7.66 0.82,6.95 0.828,6.23 0.82,5.47 0.832,4.72 0.821,3.95 0.82,3.17 0.828,2.37 0.821,1.58 0.832,0.78 0.82,-0.03 0.816,-0.83 0.832,-1.63 0.821,-2.43 0.828,-3.22 0.82,-4 0.82,-4.77 0.832,-5.53 0.821,-6.28 0.828,-7 0.82,-7.71 0.82,-8.4 0.829,-9.06 1.652,-20.03 0.82,-10.92 0.821,-11.47 1.648,-24.51 0.828,-12.97 0.82,-13.41 1.653,-27.97 3.289,-59.59 6.601,-125.27 0.821,-15.51 0.816,-15.35 1.652,-30.11 3.301,-57.01 0.821,-13.42 0.828,-13.05 1.64,-24.881 0.828,-11.801 0.821,-11.347 1.652,-21.301 0.77,-9.301 0.769,-8.879 1.539,-16.469 0.77,-7.613 0.769,-7.18 1.532,-13.109 0.769,-5.937 0.77,-5.543 0.769,-5.161 0.774,-4.777 0.769,-4.41 0.77,-4.051 0.769,-3.719 0.77,-3.39 0.769,-3.09 0.77,-2.789 0.769,-2.512 0.762,-2.25 0.77,-2 0.769,-1.781 0.77,-1.57 0.769,-1.379 0.774,-1.2 0.769,-1.031 0.77,-0.898 0.769,-0.762 0.77,-0.641 0.769,-0.539 0.77,-0.461 0.769,-0.367 0.762,-0.301 0.77,-0.25 0.769,-0.199 0.77,-0.152 0.769,-0.117 0.774,-0.102 0.769,-0.07 0.77,-0.051 0.769,-0.039 0.77,-0.031 0.769,-0.02 0.77,-0.008 0.769,-0.011 0.774,-0.008 0.758,0 0.769,-0.012 24.383,0 0,0"
             style="fill:none;stroke:#ff0000;stroke-opacity:1;stroke-width:11.52;stroke-linecap:square;stroke-linejoin:miter;stroke-miterlimit:3.25;stroke-dasharray:28.8,28.8;stroke-dashoffset:0"
             id="path31385" /><path
             d="m 623.93,811.66 412.44,0"
             style="fill:none;stroke:#ff0000;stroke-opacity:1;stroke-width:11.52;stroke-linecap:square;stroke-linejoin:miter;stroke-miterlimit:3.25;stroke-dasharray:28.8,28.8;stroke-dashoffset:0"
             id="path31387" /><path
             d="m 1041.58,811.66 20.78,0 0.83,0.012 0.83,0 0.83,0.008 0.83,0.011 0.83,0.02 0.83,0.027 0.83,0.043 0.82,0.059 0.82,0.07 0.81,0.102 0.82,0.129 0.81,0.168 0.82,0.222 0.82,0.278 0.81,0.339 0.82,0.43 0.81,0.512 0.82,0.629 0.82,0.75 0.81,0.89 0.82,1.051 0.81,1.231 0.82,1.418 0.82,1.632 0.81,1.868 0.82,2.121 0.81,2.398 0.82,2.692 0.82,3.011 0.81,3.34 0.82,3.688 0.81,4.07 0.82,4.449 0.82,4.863 0.81,5.27 0.82,5.711 0.81,6.148 1.64,13.68 0.81,7.539 0.82,8.02 1.63,17.461 0.82,9.449 0.81,9.922 1.63,21.23 0.82,11.301 0.82,11.726 1.63,24.732 3.26,53.94 0.82,14.29 0.81,14.57 1.64,29.83 3.26,61.58 6.53,123.11 0.76,13.69 0.76,13.46 1.52,26.06 0.76,12.55 0.77,12.2 1.52,23.22 0.76,10.97 0.76,10.51 0.76,10.03 0.76,9.52 0.76,9 0.77,8.45 1.52,15.19 0.76,6.71 0.76,6.09 0.76,5.46 0.76,4.82 0.76,4.16 0.77,3.51 0.76,2.84 0.76,2.16 0.76,1.49 0.76,0.79 0.76,0.12 0.76,-0.58 0.76,-1.25 0.77,-1.94 0.76,-2.62 0.76,-3.29 0.76,-3.95 0.76,-4.61 0.76,-5.25 0.76,-5.88 0.76,-6.51 0.77,-7.11 1.52,-15.96 0.76,-8.82 0.76,-9.36 1.52,-20.22 0.76,-10.82 0.77,-11.26 1.52,-23.76 0.76,-12.44 0.76,-12.78 1.52,-26.45 3.05,-55.7 6.09,-115.89 0.82,-15.53 0.83,-15.38 1.65,-30.18 3.3,-57.14 0.83,-13.46 0.82,-13.08 1.65,-24.941 0.83,-11.82 0.82,-11.379 1.65,-21.36 0.83,-9.96 0.82,-9.481 0.83,-8.988 0.83,-8.512 0.82,-8.008 0.83,-7.531 1.65,-13.629 0.82,-6.121 0.83,-5.672 0.82,-5.219 0.83,-4.8 0.82,-4.387 0.83,-4 0.82,-3.633 0.83,-3.269 0.83,-2.93 0.82,-2.621 0.83,-2.328 0.82,-2.051 0.83,-1.801 0.82,-1.559 0.83,-1.359 0.82,-1.16 0.83,-0.992 0.82,-0.84 0.83,-0.699 0.82,-0.59 0.83,-0.481 0.82,-0.39 0.83,-0.309 0.83,-0.25 0.82,-0.191 0.83,-0.149 0.82,-0.121 0.83,-0.078 0.82,-0.07 0.83,-0.039 0.82,-0.043 0.83,-0.02 0.82,-0.008 0.83,-0.011 0.82,-0.008 0.83,0 0.83,-0.012 23.97,0"
             style="fill:none;stroke:#ff0000;stroke-opacity:1;stroke-width:11.52;stroke-linecap:square;stroke-linejoin:miter;stroke-miterlimit:3.25;stroke-dasharray:28.8,28.8;stroke-dashoffset:0"
             id="path31389" /><path
             d="m 1246.6,811.66 410.98,0"
             style="fill:none;stroke:#ff0000;stroke-opacity:1;stroke-width:11.52;stroke-linecap:square;stroke-linejoin:miter;stroke-miterlimit:3.25;stroke-dasharray:28.8,28.8;stroke-dashoffset:0"
             id="path31391" /><path
             d="m 1664.29,811.66 19.08,0 0.75,0.012 0.75,0 0.76,0.008 0.75,0 0.75,0.019 0.76,0.02 0.75,0.019 0.75,0.043 0.76,0.047 0.75,0.07 0.75,0.082 0.76,0.122 0.75,0.136 0.75,0.184 0.76,0.226 0.75,0.282 0.75,0.34 0.76,0.421 0.75,0.5 0.75,0.59 0.76,0.699 0.75,0.809 0.75,0.949 0.76,1.102 0.75,1.262 0.75,1.437 0.76,1.641 0.75,1.84 0.75,2.058 0.75,2.313 0.76,2.558 0.75,2.84 0.75,3.121 0.76,3.418 0.75,3.742 0.75,4.078 0.76,4.411 1.5,9.902 0.76,5.508 0.75,5.89 1.51,12.961 0.75,7.078 0.75,7.493 1.51,16.187 0.75,8.711 0.76,9.109 1.5,19.411 3.02,43.371 0.81,12.74 0.82,13.13 1.64,27.31 3.27,58.18 6.53,123.86 0.82,15.52 0.82,15.4 1.63,30.32 0.82,14.84 0.82,14.58 1.63,28.24 0.82,13.58 0.82,13.18 1.63,25.02 0.82,11.77 0.82,11.24 1.63,20.79 0.82,9.48 0.82,8.85 0.81,8.18 0.82,7.51 0.82,6.8 0.82,6.09 0.81,5.35 0.82,4.6 0.82,3.84 0.82,3.07 0.81,2.29 0.82,1.51 0.82,0.72 0.82,-0.07 0.81,-0.87 0.82,-1.65 0.82,-2.43 0.82,-3.22 0.81,-3.98 0.82,-4.74 0.82,-5.49 0.81,-6.21 0.82,-6.94 0.82,-7.63 0.82,-8.31 0.81,-8.97 1.64,-19.81 0.82,-10.79 0.81,-11.34 1.64,-24.23 0.76,-11.95 0.76,-12.33 1.53,-25.68 3.05,-54.63 6.1,-115.72 0.76,-14.49 0.77,-14.4 1.52,-28.41 3.05,-54.57 0.76,-13.04 0.77,-12.75 1.52,-24.57 3.05,-44.97 0.77,-10.3 0.76,-9.899 1.52,-18.582 0.77,-8.668 0.76,-8.25 1.52,-15.25 0.77,-7 0.76,-6.601 0.76,-6.192 0.76,-5.789 0.77,-5.398 0.76,-5.02 1.52,-8.953 0.77,-3.957 0.76,-3.621 0.76,-3.301 0.77,-3 0.76,-2.719 0.76,-2.441 0.76,-2.187 0.77,-1.961 0.76,-1.731 0.76,-1.531 0.76,-1.348 0.77,-1.16 0.76,-1.019 0.76,-0.872 0.76,-0.742 0.77,-0.629 0.82,-0.578 0.83,-0.461 0.83,-0.39 0.82,-0.301 0.83,-0.238 0.83,-0.192 0.82,-0.148 0.83,-0.11 0.83,-0.082 0.82,-0.058 0.83,-0.051 0.83,-0.031 0.82,-0.02 0.83,-0.019 0.83,-0.008 0.82,0 0.83,-0.012 24.69,0"
             style="fill:none;stroke:#ff0000;stroke-opacity:1;stroke-width:11.52;stroke-linecap:square;stroke-linejoin:miter;stroke-miterlimit:3.25;stroke-dasharray:28.8,28.8;stroke-dashoffset:0"
             id="path31393" /><path
             d="m 1866.43,811.66 412.37,0"
             style="fill:none;stroke:#ff0000;stroke-opacity:1;stroke-width:11.52;stroke-linecap:square;stroke-linejoin:miter;stroke-miterlimit:3.25;stroke-dasharray:28.8,28.8;stroke-dashoffset:0"
             id="path31395" /><path
             d="m 2284.99,811.66 20.02,0 0.77,0.012 0.77,0 0.77,0.008 0.77,0.011 0.77,0.02 0.77,0.019 0.77,0.04 0.77,0.05 0.77,0.059 0.77,0.082 0.77,0.109 0.77,0.141 0.76,0.18 0.77,0.23 0.77,0.277 0.77,0.34 0.77,0.422 0.77,0.5 0.77,0.61 0.77,0.71 0.77,0.84 0.77,0.969 0.77,1.133 0.77,1.308 0.77,1.489 0.77,1.691 0.77,1.91 0.77,2.149 0.77,2.41 0.77,2.672 0.77,2.969 0.77,3.269 0.77,3.582 0.77,3.93 0.77,4.269 0.77,4.629 1.54,10.403 0.75,5.668 0.76,6.05 1.51,13.309 0.75,7.262 0.76,7.66 1.51,16.558 0.75,8.891 0.76,9.289 1.5,19.77 3.02,44.071 0.76,11.89 0.75,12.21 1.51,25.32 3.02,53.66 6.04,114.15 0.75,14.39 0.76,14.33 1.51,28.32 3.01,54.56 0.76,13.03 0.75,12.74 1.51,24.47 0.76,11.67 0.75,11.28 1.51,21.24 0.76,9.92 0.75,9.42 0.76,8.9 0.75,8.37 0.75,7.81 0.76,7.24 0.75,6.65 0.76,6.04 0.75,5.43 0.76,4.8 0.75,4.16 0.76,3.5 0.75,2.86 0.76,2.18 0.75,1.52 0.76,0.85 0.81,0.16 0.82,-0.64 0.82,-1.42 0.82,-2.22 0.82,-3 0.82,-3.77 0.82,-4.53 0.82,-5.29 0.81,-6.03 0.82,-6.75 0.82,-7.45 0.82,-8.14 0.82,-8.81 0.82,-9.45 1.64,-20.72 0.81,-11.21 0.82,-11.76 1.64,-24.98 3.28,-54.98 6.55,-122.03 0.81,-15.66 0.82,-15.63 1.64,-31.03 3.28,-60.17 0.81,-14.46 0.82,-14.18 1.64,-27.38 3.28,-50.26 0.81,-11.52 0.82,-11.07 1.64,-20.762 0.82,-9.66 0.82,-9.187 1.64,-16.942 0.81,-7.75 0.82,-7.281 0.82,-6.797 0.82,-6.351 0.82,-5.891 0.82,-5.461 1.64,-9.637 0.76,-3.941 0.76,-3.621 0.77,-3.301 0.76,-2.988 0.76,-2.711 0.77,-2.438 0.76,-2.191 0.77,-1.941 0.76,-1.731 0.76,-1.519 0.77,-1.34 0.76,-1.16 0.77,-1.008 0.76,-0.871 0.76,-0.731 0.77,-0.629 0.76,-0.531 0.77,-0.43 0.76,-0.371 0.76,-0.289 0.77,-0.238 0.76,-0.191 0.77,-0.149 0.76,-0.121 0.76,-0.09 0.77,-0.07 0.76,-0.059 0.77,-0.031 0.76,-0.031 0.76,-0.02 0.77,-0.008 0.76,-0.011 0.77,-0.008 0.76,0 0.76,-0.012 24.77,0"
             style="fill:none;stroke:#ff0000;stroke-opacity:1;stroke-width:11.52;stroke-linecap:square;stroke-linejoin:miter;stroke-miterlimit:3.25;stroke-dasharray:28.8,28.8;stroke-dashoffset:0"
             id="path31397" /><path
             d="m 2487.26,811.66 51.17,0"
             style="fill:none;stroke:#ff0000;stroke-opacity:1;stroke-width:11.52;stroke-linecap:square;stroke-linejoin:miter;stroke-miterlimit:3.25;stroke-dasharray:28.8,28.8;stroke-dashoffset:0"
             id="path31399" /><path
             d="m 53.5703,811.66 50.9687,0"
             style="fill:none;stroke:#0000ff;stroke-opacity:1;stroke-width:11.52;stroke-linecap:square;stroke-linejoin:miter;stroke-miterlimit:3.25;stroke-dasharray:none"
             id="path31401" /><path
             d="m 108.949,811.66 21.481,0 0.832,0.012 0.828,0 0.82,0.008 0.828,0.011 0.821,0.02 0.832,0.027 0.828,0.032 0.82,0.058 0.832,0.07 0.828,0.102 0.821,0.121 0.832,0.168 0.82,0.223 0.828,0.269 0.828,0.348 0.82,0.422 0.832,0.519 0.829,0.629 0.82,0.762 0.832,0.898 0.82,1.071 0.828,1.242 0.832,1.437 0.821,1.672 0.828,1.899 0.82,2.172 0.828,2.449 0.832,2.758 0.821,3.082 0.828,3.418 0.769,3.531 0.774,3.859 0.769,4.199 0.778,4.571 0.769,4.941 0.774,5.32 1.539,11.848 0.769,6.531 0.77,6.961 1.55,15.168 0.77,8.231 0.77,8.66 1.539,18.582 0.769,9.918 0.781,10.332 1.539,21.84 3.082,48.109 0.782,12.86 0.769,13.15 1.539,27.11 3.09,56.73 0.77,14.56 0.769,14.65 1.539,29.47 3.09,58.77 0.774,14.47 0.769,14.33 1.539,28.07 3.09,53.01 0.77,12.42 0.769,12.03 1.551,22.79 0.769,10.7 0.77,10.22 1.543,18.85 0.769,8.6 0.77,8.01 0.777,7.42 0.774,6.81 0.769,6.17 0.77,5.53 0.769,4.87 0.77,4.2 0.762,3.46 0.757,2.8 0.75,2.13 0.762,1.45 0.75,0.79 0.758,0.11 0.762,-0.57 0.75,-1.25 0.757,-1.92 0.762,-2.59 0.75,-3.25 0.762,-3.9 0.75,-4.56 0.758,-5.19 0.761,-5.81 0.75,-6.43 0.758,-7.02 0.762,-7.61 1.508,-16.89 0.761,-9.24 0.75,-9.76 1.508,-20.94 0.762,-11.14 0.762,-11.56 1.508,-24.26 3.031,-52.33 0.75,-13.72 0.758,-13.91 1.511,-28.3 3.032,-57.65 0.75,-14.46 0.757,-14.43 1.512,-28.63 3.027,-55.61 0.75,-13.42 0.762,-13.18 1.512,-25.56 0.758,-12.33 0.75,-12.02 1.519,-23.022 0.75,-10.976 0.762,-10.602 1.508,-20.051 0.761,-9.429 0.75,-9.032 1.52,-16.828 0.82,-8.441 0.821,-7.957 0.82,-7.481 0.82,-7.011 0.821,-6.539 0.82,-6.082 1.637,-10.84 0.82,-4.778 0.82,-4.382 0.821,-3.989 0.82,-3.621 0.82,-3.269 0.82,-2.93 0.821,-2.621 0.82,-2.328 0.82,-2.063 0.821,-1.808 0.828,-1.578 0.82,-1.364 0.82,-1.179 0.821,-1 0.82,-0.848 0.82,-0.711 0.821,-0.59 0.816,-0.488 0.82,-0.402 0.821,-0.321 0.82,-0.25 0.82,-0.199 0.821,-0.16 0.82,-0.121 0.82,-0.09 0.821,-0.07 0.82,-0.047 0.82,-0.032 0.821,-0.031 0.82,-0.008 0.816,-0.011 0.821,-0.008 0.82,0 0.832,-0.012 24.168,0 0,0"
             style="fill:none;stroke:#0000ff;stroke-opacity:1;stroke-width:11.52;stroke-linecap:square;stroke-linejoin:miter;stroke-miterlimit:3.25;stroke-dasharray:none"
             id="path31403" /><path
             d="m 317.762,811.66 408,0"
             style="fill:none;stroke:#0000ff;stroke-opacity:1;stroke-width:11.52;stroke-linecap:square;stroke-linejoin:miter;stroke-miterlimit:3.25;stroke-dasharray:none"
             id="path31405" /><path
             d="m 735.41,811.66 16.031,0 0.77,0.012 0.758,0 0.761,0.008 0.77,0 0.762,0.019 0.769,0.02 0.758,0.019 0.762,0.043 0.769,0.047 0.758,0.07 0.762,0.09 0.832,0.121 0.828,0.172 0.828,0.207 0.82,0.274 0.832,0.34 0.829,0.418 0.832,0.511 0.82,0.629 0.828,0.75 0.832,0.891 0.828,1.051 0.821,1.226 0.832,1.442 0.828,1.652 0.832,1.887 0.816,2.16 0.832,2.441 0.828,2.738 0.832,3.071 0.821,3.41 0.828,3.781 0.832,4.16 0.828,4.559 0.82,4.973 0.832,5.41 0.828,5.859 0.832,6.32 0.821,6.778 0.828,7.269 0.832,7.75 1.648,16.961 0.828,9.223 0.832,9.707 1.661,20.859 3.308,47.274 0.821,12.888 0.832,13.28 1.66,27.66 3.308,58.95 0.821,15.33 0.828,15.5 1.66,31.37 3.312,63.24 0.821,15.7 0.828,15.57 1.66,30.62 3.309,58.08 0.812,13.39 0.809,13 1.629,24.63 0.812,11.58 0.809,11.05 1.629,20.39 0.812,9.3 0.809,8.65 0.808,8.01 0.821,7.32 0.812,6.63 0.809,5.91 0.808,5.19 0.821,4.45 0.812,3.69 0.809,2.92 0.808,2.16 0.821,1.38 0.812,0.61 0.809,-0.18 0.808,-0.96 0.821,-1.74 0.812,-2.51 0.809,-3.28 0.808,-4.04 0.821,-4.79 0.812,-5.52 0.809,-6.24 0.808,-6.95 0.813,-7.64 0.82,-8.31 0.809,-8.95 1.621,-19.76 0.82,-10.75 0.809,-11.29 1.621,-24.12 0.82,-12.75 0.809,-13.19 1.621,-27.5 3.25,-58.6 0.82,-15.18 0.809,-15.33 1.621,-30.95 3.25,-62.02 0.82,-15.32 0.809,-15.19 1.621,-29.83 3.25,-56.65 0.758,-12.5 0.761,-12.18 1.508,-23.369 0.762,-11.152 0.762,-10.789 1.507,-20.418 0.762,-9.621 0.758,-9.211 1.519,-17.211 0.75,-7.981 0.762,-7.578 1.52,-13.922 0.75,-6.347 0.761,-5.961 0.758,-5.571 0.762,-5.187 0.75,-4.82 0.758,-4.461 1.519,-7.891 0.762,-3.461 0.75,-3.148 0.762,-2.86 0.758,-2.59 0.761,-2.32 0.75,-2.082 0.758,-1.859 0.762,-1.641 0.758,-1.437 0.75,-1.274 0.761,-1.098 0.758,-0.96 0.762,-0.821 0.762,-0.699 0.75,-0.59 0.757,-0.488 0.762,-0.422 0.758,-0.34 0.75,-0.281 0.762,-0.219 0.757,-0.18 0.762,-0.14 0.75,-0.11 0.762,-0.089 0.758,-0.063 0.761,-0.047 0.75,-0.043 0.758,-0.027 0.762,-0.012 0.758,-0.019 0.761,-0.008 1.508,0 0.762,-0.012 24.27,0 0,0"
             style="fill:none;stroke:#0000ff;stroke-opacity:1;stroke-width:11.52;stroke-linecap:square;stroke-linejoin:miter;stroke-miterlimit:3.25;stroke-dasharray:none"
             id="path31407" /><path
             d="m 939.59,811.66 407.39,0"
             style="fill:none;stroke:#0000ff;stroke-opacity:1;stroke-width:11.52;stroke-linecap:square;stroke-linejoin:miter;stroke-miterlimit:3.25;stroke-dasharray:none"
             id="path31409" /><path
             d="m 1349.12,811.66 23.71,0 0.76,0.012 0.77,0 0.76,0.008 0.77,0.011 0.76,0.008 0.77,0.02 0.76,0.031 0.77,0.039 0.76,0.051 0.77,0.082 0.76,0.09 0.77,0.117 0.76,0.16 0.77,0.199 0.76,0.25 0.77,0.301 0.76,0.371 0.77,0.449 0.76,0.539 0.77,0.641 0.76,0.762 0.77,0.89 0.76,1.028 0.77,1.179 0.76,1.372 0.76,1.55 0.77,1.758 0.76,1.992 0.77,2.219 0.76,2.481 0.77,2.761 0.76,3.047 0.77,3.352 0.76,3.672 0.77,4 0.76,4.359 0.77,4.711 1.53,10.558 0.76,5.86 0.77,6.269 1.53,13.762 0.76,7.5 0.77,7.918 1.53,17.102 0.76,9.179 0.77,9.59 1.53,20.391 3.05,45.359 0.77,12.22 0.76,12.55 1.53,25.97 3.06,54.91 0.83,15.4 0.83,15.57 1.66,31.48 3.31,63.33 0.83,15.69 0.83,15.55 1.66,30.55 3.32,57.79 0.83,13.54 0.82,13.1 1.66,24.77 0.83,11.6 0.83,11.04 1.66,20.26 0.83,9.17 0.83,8.5 0.82,7.8 0.83,7.09 0.83,6.35 0.83,5.6 0.83,4.84 0.83,4.05 0.83,3.27 0.83,2.46 0.83,1.66 0.83,0.85 0.82,0.03 0.83,-0.78 0.83,-1.59 0.83,-2.4 0.83,-3.19 0.83,-3.99 0.83,-4.77 0.83,-5.54 0.83,-6.29 0.82,-7.03 0.83,-7.75 0.83,-8.44 0.83,-9.11 0.83,-9.77 1.66,-21.38 0.83,-11.55 0.83,-12.09 1.65,-25.67 0.83,-13.5 0.83,-13.91 1.66,-28.88 3.32,-60.94 0.81,-15.39 0.81,-15.49 1.63,-31.12 3.26,-61.81 0.81,-15.17 0.81,-14.98 1.63,-29.3 3.26,-55.16 0.81,-12.93 0.81,-12.539 1.63,-23.863 0.82,-11.277 0.81,-10.84 1.63,-20.289 0.81,-9.442 0.81,-8.968 0.82,-8.5 0.81,-8.024 0.82,-7.547 0.81,-7.082 1.63,-12.781 0.81,-5.726 0.81,-5.293 0.82,-4.868 0.81,-4.48 0.82,-4.082 0.81,-3.707 0.81,-3.371 0.82,-3.02 0.81,-2.722 0.81,-2.411 0.82,-2.148 0.81,-1.879 0.82,-1.66 0.81,-1.43 0.81,-1.242 0.82,-1.07 0.81,-0.899 0.82,-0.769 0.81,-0.641 0.81,-0.531 0.82,-0.43 0.81,-0.347 0.81,-0.293 0.82,-0.219 0.81,-0.18 0.82,-0.129 0.81,-0.109 0.81,-0.082 0.82,-0.051 0.81,-0.039 0.81,-0.031 0.82,-0.02 0.76,-0.019 0.76,-0.008 1.51,0 0.76,-0.012 24.11,0"
             style="fill:none;stroke:#0000ff;stroke-opacity:1;stroke-width:11.52;stroke-linecap:square;stroke-linejoin:miter;stroke-miterlimit:3.25;stroke-dasharray:none"
             id="path31411" /><path
             d="m 1556.51,811.66 411.68,0"
             style="fill:none;stroke:#0000ff;stroke-opacity:1;stroke-width:11.52;stroke-linecap:square;stroke-linejoin:miter;stroke-miterlimit:3.25;stroke-dasharray:none"
             id="path31413" /><path
             d="m 1976.67,811.66 17.24,0 0.82,0.012 0.82,0 0.82,0.008 0.83,0.011 0.82,0.008 0.82,0.031 0.82,0.032 0.82,0.047 0.82,0.07 0.82,0.09 0.82,0.121 0.82,0.148 0.82,0.203 0.82,0.258 0.83,0.321 0.82,0.39 0.82,0.488 0.82,0.59 0.82,0.711 0.82,0.852 0.82,1 0.82,1.168 0.82,1.359 0.82,1.57 0.82,1.813 0.83,2.051 0.82,2.328 0.82,2.621 0.82,2.93 0.82,3.269 0.82,3.621 0.82,3.981 0.82,4.379 0.82,4.781 0.82,5.199 0.83,5.641 0.82,6.078 0.82,6.539 0.82,7.012 0.82,7.488 0.82,7.961 1.64,17.371 0.77,8.769 0.76,9.18 1.54,19.61 3.06,43.941 0.77,11.899 0.76,12.25 1.54,25.43 3.06,54.1 0.77,14.06 0.76,14.24 1.54,28.86 3.06,58.52 6.13,113.53 0.77,13.27 0.76,12.97 1.53,24.91 0.77,11.89 0.77,11.47 1.53,21.59 0.77,10.08 0.76,9.56 0.77,9.03 0.76,8.48 0.77,7.9 0.77,7.31 0.76,6.7 0.77,6.08 0.77,5.44 0.76,4.79 0.77,4.12 0.76,3.46 0.77,2.78 0.77,2.09 0.76,1.41 0.77,0.71 0.77,0.02 0.76,-0.68 0.77,-1.37 0.76,-2.07 0.77,-2.74 0.77,-3.43 0.76,-4.09 0.77,-4.76 0.83,-5.89 0.83,-6.64 0.83,-7.37 0.83,-8.08 0.83,-8.77 0.83,-9.44 1.66,-20.76 0.83,-11.28 0.83,-11.82 1.66,-25.2 3.32,-55.59 0.83,-14.77 0.83,-15.05 1.66,-30.76 3.33,-63.12 6.64,-124.1 0.83,-14.62 0.83,-14.33 1.66,-27.64 0.83,-13.26 0.83,-12.87 1.66,-24.461 0.83,-11.558 0.83,-11.09 1.66,-20.762 0.83,-9.648 0.83,-9.161 1.66,-16.82 0.83,-7.68 0.83,-7.191 0.83,-6.711 0.83,-6.238 0.83,-5.781 0.83,-5.329 0.83,-4.902 0.84,-4.488 0.83,-4.078 0.83,-3.703 0.83,-3.34 0.83,-3 0.83,-2.68 0.83,-2.367 0.83,-2.102 0.83,-1.84 0.81,-1.57 0.82,-1.371 0.81,-1.168 0.82,-1.012 0.81,-0.847 0.82,-0.711 0.81,-0.602 0.82,-0.488 0.81,-0.402 0.82,-0.329 0.81,-0.261 0.82,-0.207 0.81,-0.16 0.82,-0.122 0.82,-0.089 0.81,-0.071 0.82,-0.05 0.81,-0.04 0.82,-0.019 0.81,-0.02 0.82,-0.011 0.81,-0.008 0.82,0 0.81,-0.012 24.31,0"
             style="fill:none;stroke:#0000ff;stroke-opacity:1;stroke-width:11.52;stroke-linecap:square;stroke-linejoin:miter;stroke-miterlimit:3.25;stroke-dasharray:none"
             id="path31415" /><path
             d="m 2177.04,811.66 361.39,0"
             style="fill:none;stroke:#0000ff;stroke-opacity:1;stroke-width:11.52;stroke-linecap:square;stroke-linejoin:miter;stroke-miterlimit:3.25;stroke-dasharray:none"
             id="path31417" /><path
             d="m 53.5703,811.66 0,29.051"
             style="fill:none;stroke:#000000;stroke-opacity:1;stroke-width:3.6;stroke-linecap:butt;stroke-linejoin:miter;stroke-miterlimit:3.25;stroke-dasharray:none"
             id="path31419" /></g></g><g
         id="g31433"><g
           id="g31435"
           clip-path="url(#clipPath31437)"><path
             d="m 208.871,811.66 0,17.43"
             style="fill:none;stroke:#000000;stroke-opacity:1;stroke-width:3.6;stroke-linecap:butt;stroke-linejoin:miter;stroke-miterlimit:3.25;stroke-dasharray:none"
             id="path31441" /><path
             d="m 364.18,811.66 0,17.43"
             style="fill:none;stroke:#000000;stroke-opacity:1;stroke-width:3.6;stroke-linecap:butt;stroke-linejoin:miter;stroke-miterlimit:3.25;stroke-dasharray:none"
             id="path31443" /><path
             d="m 519.48,811.66 0,17.43"
             style="fill:none;stroke:#000000;stroke-opacity:1;stroke-width:3.6;stroke-linecap:butt;stroke-linejoin:miter;stroke-miterlimit:3.25;stroke-dasharray:none"
             id="path31445" /><path
             d="m 674.781,811.66 0,29.051"
             style="fill:none;stroke:#000000;stroke-opacity:1;stroke-width:3.6;stroke-linecap:butt;stroke-linejoin:miter;stroke-miterlimit:3.25;stroke-dasharray:none"
             id="path31447" /></g></g><g
         id="g31461"><g
           id="g31463"
           clip-path="url(#clipPath31465)"><path
             d="m 830.09,811.66 0,17.43"
             style="fill:none;stroke:#000000;stroke-opacity:1;stroke-width:3.6;stroke-linecap:butt;stroke-linejoin:miter;stroke-miterlimit:3.25;stroke-dasharray:none"
             id="path31469" /><path
             d="m 985.391,811.66 0,17.43"
             style="fill:none;stroke:#000000;stroke-opacity:1;stroke-width:3.6;stroke-linecap:butt;stroke-linejoin:miter;stroke-miterlimit:3.25;stroke-dasharray:none"
             id="path31471" /><path
             d="m 1140.7,811.66 0,17.43"
             style="fill:none;stroke:#000000;stroke-opacity:1;stroke-width:3.6;stroke-linecap:butt;stroke-linejoin:miter;stroke-miterlimit:3.25;stroke-dasharray:none"
             id="path31473" /><path
             d="m 1296,811.66 0,29.051"
             style="fill:none;stroke:#000000;stroke-opacity:1;stroke-width:3.6;stroke-linecap:butt;stroke-linejoin:miter;stroke-miterlimit:3.25;stroke-dasharray:none"
             id="path31475" /><path
             d="m 1451.3,811.66 0,17.43"
             style="fill:none;stroke:#000000;stroke-opacity:1;stroke-width:3.6;stroke-linecap:butt;stroke-linejoin:miter;stroke-miterlimit:3.25;stroke-dasharray:none"
             id="path31477" /><path
             d="m 1606.61,811.66 0,17.43"
             style="fill:none;stroke:#000000;stroke-opacity:1;stroke-width:3.6;stroke-linecap:butt;stroke-linejoin:miter;stroke-miterlimit:3.25;stroke-dasharray:none"
             id="path31479" /><path
             d="m 1761.91,811.66 0,17.43"
             style="fill:none;stroke:#000000;stroke-opacity:1;stroke-width:3.6;stroke-linecap:butt;stroke-linejoin:miter;stroke-miterlimit:3.25;stroke-dasharray:none"
             id="path31481" /><path
             d="m 1917.22,811.66 0,29.051"
             style="fill:none;stroke:#000000;stroke-opacity:1;stroke-width:3.6;stroke-linecap:butt;stroke-linejoin:miter;stroke-miterlimit:3.25;stroke-dasharray:none"
             id="path31483" /></g></g><g
         id="g31495"><g
           id="g31497"
           clip-path="url(#clipPath31499)"><path
             d="m 2072.52,811.66 0,17.43"
             style="fill:none;stroke:#000000;stroke-opacity:1;stroke-width:3.6;stroke-linecap:butt;stroke-linejoin:miter;stroke-miterlimit:3.25;stroke-dasharray:none"
             id="path31503" /><path
             d="m 2227.82,811.66 0,17.43"
             style="fill:none;stroke:#000000;stroke-opacity:1;stroke-width:3.6;stroke-linecap:butt;stroke-linejoin:miter;stroke-miterlimit:3.25;stroke-dasharray:none"
             id="path31505" /><path
             d="m 2383.13,811.66 0,17.43"
             style="fill:none;stroke:#000000;stroke-opacity:1;stroke-width:3.6;stroke-linecap:butt;stroke-linejoin:miter;stroke-miterlimit:3.25;stroke-dasharray:none"
             id="path31507" /><path
             d="m 2538.43,811.66 0,29.051"
             style="fill:none;stroke:#000000;stroke-opacity:1;stroke-width:3.6;stroke-linecap:butt;stroke-linejoin:miter;stroke-miterlimit:3.25;stroke-dasharray:none"
             id="path31509" /></g></g><g
         id="g31521"><g
           id="g31523"
           clip-path="url(#clipPath31525)"><path
             d="m 1.80078,811.66 2588.39922,0"
             style="fill:none;stroke:#000000;stroke-opacity:1;stroke-width:3.6;stroke-linecap:butt;stroke-linejoin:miter;stroke-miterlimit:3.25;stroke-dasharray:none"
             id="path31529" /><path
             d="m 1296,11.8008 17.43,0"
             style="fill:none;stroke:#000000;stroke-opacity:1;stroke-width:3.6;stroke-linecap:butt;stroke-linejoin:miter;stroke-miterlimit:3.25;stroke-dasharray:none"
             id="path31531" /><path
             d="m 1296,68.9297 17.43,0"
             style="fill:none;stroke:#000000;stroke-opacity:1;stroke-width:3.6;stroke-linecap:butt;stroke-linejoin:miter;stroke-miterlimit:3.25;stroke-dasharray:none"
             id="path31533" /><path
             d="m 1296,126.07 29.05,0"
             style="fill:none;stroke:#000000;stroke-opacity:1;stroke-width:3.6;stroke-linecap:butt;stroke-linejoin:miter;stroke-miterlimit:3.25;stroke-dasharray:none"
             id="path31535" /></g></g><g
         id="g31553"><g
           id="g31555"
           clip-path="url(#clipPath31557)"><path
             d="m 1296,183.199 17.43,0"
             style="fill:none;stroke:#000000;stroke-opacity:1;stroke-width:3.6;stroke-linecap:butt;stroke-linejoin:miter;stroke-miterlimit:3.25;stroke-dasharray:none"
             id="path31561" /><path
             d="m 1296,240.332 17.43,0"
             style="fill:none;stroke:#000000;stroke-opacity:1;stroke-width:3.6;stroke-linecap:butt;stroke-linejoin:miter;stroke-miterlimit:3.25;stroke-dasharray:none"
             id="path31563" /><path
             d="m 1296,297.461 17.43,0"
             style="fill:none;stroke:#000000;stroke-opacity:1;stroke-width:3.6;stroke-linecap:butt;stroke-linejoin:miter;stroke-miterlimit:3.25;stroke-dasharray:none"
             id="path31565" /><path
             d="m 1296,354.602 29.05,0"
             style="fill:none;stroke:#000000;stroke-opacity:1;stroke-width:3.6;stroke-linecap:butt;stroke-linejoin:miter;stroke-miterlimit:3.25;stroke-dasharray:none"
             id="path31567" /></g></g><g
         id="g31585"><g
           id="g31587"
           clip-path="url(#clipPath31589)"><path
             d="m 1296,411.73 17.43,0"
             style="fill:none;stroke:#000000;stroke-opacity:1;stroke-width:3.6;stroke-linecap:butt;stroke-linejoin:miter;stroke-miterlimit:3.25;stroke-dasharray:none"
             id="path31593" /><path
             d="m 1296,468.859 17.43,0"
             style="fill:none;stroke:#000000;stroke-opacity:1;stroke-width:3.6;stroke-linecap:butt;stroke-linejoin:miter;stroke-miterlimit:3.25;stroke-dasharray:none"
             id="path31595" /><path
             d="m 1296,526 17.43,0"
             style="fill:none;stroke:#000000;stroke-opacity:1;stroke-width:3.6;stroke-linecap:butt;stroke-linejoin:miter;stroke-miterlimit:3.25;stroke-dasharray:none"
             id="path31597" /><path
             d="m 1296,583.129 29.05,0"
             style="fill:none;stroke:#000000;stroke-opacity:1;stroke-width:3.6;stroke-linecap:butt;stroke-linejoin:miter;stroke-miterlimit:3.25;stroke-dasharray:none"
             id="path31599" /></g></g><g
         id="g31617"><g
           id="g31619"
           clip-path="url(#clipPath31621)"><path
             d="m 1296,640.262 17.43,0"
             style="fill:none;stroke:#000000;stroke-opacity:1;stroke-width:3.6;stroke-linecap:butt;stroke-linejoin:miter;stroke-miterlimit:3.25;stroke-dasharray:none"
             id="path31625" /><path
             d="m 1296,697.391 17.43,0"
             style="fill:none;stroke:#000000;stroke-opacity:1;stroke-width:3.6;stroke-linecap:butt;stroke-linejoin:miter;stroke-miterlimit:3.25;stroke-dasharray:none"
             id="path31627" /><path
             d="m 1296,754.531 17.43,0"
             style="fill:none;stroke:#000000;stroke-opacity:1;stroke-width:3.6;stroke-linecap:butt;stroke-linejoin:miter;stroke-miterlimit:3.25;stroke-dasharray:none"
             id="path31629" /><path
             d="m 1296,811.66 29.05,0"
             style="fill:none;stroke:#000000;stroke-opacity:1;stroke-width:3.6;stroke-linecap:butt;stroke-linejoin:miter;stroke-miterlimit:3.25;stroke-dasharray:none"
             id="path31631" /><path
             d="m 1296,868.789 17.43,0"
             style="fill:none;stroke:#000000;stroke-opacity:1;stroke-width:3.6;stroke-linecap:butt;stroke-linejoin:miter;stroke-miterlimit:3.25;stroke-dasharray:none"
             id="path31633" /><path
             d="m 1296,925.93 17.43,0"
             style="fill:none;stroke:#000000;stroke-opacity:1;stroke-width:3.6;stroke-linecap:butt;stroke-linejoin:miter;stroke-miterlimit:3.25;stroke-dasharray:none"
             id="path31635" /><path
             d="m 1296,983.059 17.43,0"
             style="fill:none;stroke:#000000;stroke-opacity:1;stroke-width:3.6;stroke-linecap:butt;stroke-linejoin:miter;stroke-miterlimit:3.25;stroke-dasharray:none"
             id="path31637" /><path
             d="m 1296,1040.19 29.05,0"
             style="fill:none;stroke:#000000;stroke-opacity:1;stroke-width:3.6;stroke-linecap:butt;stroke-linejoin:miter;stroke-miterlimit:3.25;stroke-dasharray:none"
             id="path31639" /></g></g><g
         id="g31655"><g
           id="g31657"
           clip-path="url(#clipPath31659)"><path
             d="m 1296,1097.32 17.43,0"
             style="fill:none;stroke:#000000;stroke-opacity:1;stroke-width:3.6;stroke-linecap:butt;stroke-linejoin:miter;stroke-miterlimit:3.25;stroke-dasharray:none"
             id="path31663" /><path
             d="m 1296,1154.46 17.43,0"
             style="fill:none;stroke:#000000;stroke-opacity:1;stroke-width:3.6;stroke-linecap:butt;stroke-linejoin:miter;stroke-miterlimit:3.25;stroke-dasharray:none"
             id="path31665" /><path
             d="m 1296,1211.59 17.43,0"
             style="fill:none;stroke:#000000;stroke-opacity:1;stroke-width:3.6;stroke-linecap:butt;stroke-linejoin:miter;stroke-miterlimit:3.25;stroke-dasharray:none"
             id="path31667" /><path
             d="m 1296,1268.72 29.05,0"
             style="fill:none;stroke:#000000;stroke-opacity:1;stroke-width:3.6;stroke-linecap:butt;stroke-linejoin:miter;stroke-miterlimit:3.25;stroke-dasharray:none"
             id="path31669" /></g></g><g
         id="g31685"><g
           id="g31687"
           clip-path="url(#clipPath31689)"><path
             d="m 1296,1325.86 17.43,0"
             style="fill:none;stroke:#000000;stroke-opacity:1;stroke-width:3.6;stroke-linecap:butt;stroke-linejoin:miter;stroke-miterlimit:3.25;stroke-dasharray:none"
             id="path31693" /><path
             d="m 1296,1382.99 17.43,0"
             style="fill:none;stroke:#000000;stroke-opacity:1;stroke-width:3.6;stroke-linecap:butt;stroke-linejoin:miter;stroke-miterlimit:3.25;stroke-dasharray:none"
             id="path31695" /><path
             d="m 1296,1440.12 17.43,0"
             style="fill:none;stroke:#000000;stroke-opacity:1;stroke-width:3.6;stroke-linecap:butt;stroke-linejoin:miter;stroke-miterlimit:3.25;stroke-dasharray:none"
             id="path31697" /><path
             d="m 1296,1497.25 29.05,0"
             style="fill:none;stroke:#000000;stroke-opacity:1;stroke-width:3.6;stroke-linecap:butt;stroke-linejoin:miter;stroke-miterlimit:3.25;stroke-dasharray:none"
             id="path31699" /></g></g><g
         id="g31715"><g
           id="g31717"
           clip-path="url(#clipPath31719)"><path
             d="m 1296,1554.39 17.43,0"
             style="fill:none;stroke:#000000;stroke-opacity:1;stroke-width:3.6;stroke-linecap:butt;stroke-linejoin:miter;stroke-miterlimit:3.25;stroke-dasharray:none"
             id="path31723" /><path
             d="m 1296,1611.52 17.43,0"
             style="fill:none;stroke:#000000;stroke-opacity:1;stroke-width:3.6;stroke-linecap:butt;stroke-linejoin:miter;stroke-miterlimit:3.25;stroke-dasharray:none"
             id="path31725" /><path
             d="m 1296,11.8008 0,1599.7192"
             style="fill:none;stroke:#000000;stroke-opacity:1;stroke-width:3.6;stroke-linecap:butt;stroke-linejoin:miter;stroke-miterlimit:3.25;stroke-dasharray:none"
             id="path31727" /></g></g><g
         id="g31729"
         transform="translate(-160,480)"><g
           id="g31731"
           clip-path="url(#clipPath31733)"><path
             d="m 2712.28,899 276.48,0"
             style="fill:none;stroke:#ff0000;stroke-width:11.52000046;stroke-linecap:square;stroke-linejoin:miter;stroke-miterlimit:3.25;stroke-opacity:1;stroke-dasharray:28.8, 28.8;stroke-dashoffset:0"
             id="path31737"
             inkscape:connector-curvature="0" /></g></g><g
         id="g31749"
         transform="translate(-160,320)"><g
           id="g31751"
           clip-path="url(#clipPath31753)"><path
             d="m 2712.28,744.121 276.48,0"
             style="fill:none;stroke:#0000ff;stroke-width:11.52000046;stroke-linecap:square;stroke-linejoin:miter;stroke-miterlimit:3.25;stroke-opacity:1;stroke-dasharray:none"
             id="path31757"
             inkscape:connector-curvature="0" /></g></g><g
         id="g32262"
         transform="matrix(8,0,0,-8,2199.9494,2894.1319)"><g
           word-spacing="normal"
           letter-spacing="normal"
           font-size-adjust="none"
           font-stretch="normal"
           font-weight="normal"
           font-variant="normal"
           font-style="normal"
           stroke-miterlimit="10.433"
           xml:space="preserve"
           transform="matrix(0.29107143,0,0,-0.29107143,-50.9375,311.25)"
           id="g32264"
           style="font-style:normal;font-variant:normal;font-weight:normal;font-stretch:normal;letter-spacing:normal;word-spacing:normal;text-anchor:start;fill:none;stroke:#000000;stroke-linecap:butt;stroke-linejoin:miter;stroke-miterlimit:10.43299961;stroke-opacity:1;stroke-dasharray:none;stroke-dashoffset:0"><path
             id="path32266"
             d="m 479.54,439.48 0,0.02 0,0.02 0.01,0.04 0.02,0.04 0.01,0.05 0.01,0.04 0.01,0.05 0.01,0.05 0.01,0.05 0.01,0.05 0.01,0.05 0.01,0.05 0.01,0.05 0.01,0.05 0,0.04 0,0.05 0.01,0.03 0,0.02 c 0,0.5 -0.35,0.55 -0.6,0.55 -0.5,0 -0.54,-0.11 -0.75,-1 l -8.26,-32.94 c -3.78,0.45 -5.68,2.3 -5.68,5.59 0,0.99 0,2.28 2.69,9.27 0.21,0.59 0.55,1.44 0.55,2.44 0,2.23 -1.59,4.07 -4.09,4.07 -4.74,0 -6.58,-7.21 -6.58,-7.67 0,-0.5 0.5,-0.5 0.61,-0.5 0.5,0 0.54,0.11 0.79,0.91 1.35,4.73 3.33,6.17 5.03,6.17 0.4,0 1.25,0 1.25,-1.59 0,-1.3 -0.5,-2.53 -1.15,-4.28 -2.39,-6.29 -2.39,-7.58 -2.39,-8.43 0,-4.73 3.89,-6.78 8.67,-7.07 -0.41,-1.79 -0.41,-1.89 -1.09,-4.54 -0.16,-0.54 -1.16,-4.57 -1.16,-4.73 0,-0.05 0,-0.5 0.61,-0.5 0.09,0 0.34,0 0.44,0.2 0.15,0.1 0.45,1.35 0.61,2.05 l 1.89,7.42 c 1.84,0 6.22,0 10.9,5.33 2.05,2.3 3.1,4.48 3.64,5.98 0.46,1.24 1.55,5.58 1.55,7.77 0,2.8 -1.34,3.48 -2.2,3.48 -1.24,0 -2.49,-1.29 -2.49,-2.39 0,-0.64 0.3,-0.93 0.75,-1.34 0.55,-0.55 1.8,-1.84 1.8,-4.23 0,-3.19 -2.59,-7.27 -4.34,-9.07 -4.38,-4.43 -7.57,-4.43 -9.36,-4.43 z"
             inkscape:connector-curvature="0"
             style="fill:#000000;stroke-width:0" /><path
             id="path32268"
             d="m 505.91,409.87 -0.01,0.71 -0.02,0.68 -0.03,0.66 -0.04,0.64 -0.06,0.62 -0.07,0.6 -0.09,0.57 -0.11,0.56 -0.13,0.55 -0.15,0.53 -0.16,0.51 -0.2,0.5 -0.21,0.49 -0.24,0.48 -0.26,0.47 -0.14,0.23 -0.15,0.23 c -1.07,1.61 -3.23,3 -6.03,3 v -0.98 c 1.89,0 3.71,-1.14 4.33,-3.17 0.56,-1.88 0.59,-4.39 0.59,-7.43 0,-2.57 0,-5.15 -0.45,-7.34 -0.7,-3.17 -3.06,-3.94 -4.47,-3.94 h 0 c -1.59,0 -3.72,0.94 -4.42,3.8 -0.48,2.05 -0.48,4.91 -0.48,7.48 0,2.55 0,5.21 0.51,7.11 0.74,2.75 2.97,3.49 4.39,3.49 v 0.98 c -8.08,0 -8.08,-9.51 -8.08,-12.03 0,-2.5 0,-11.81 8.08,-11.81 8.1,0 8.1,9.31 8.1,11.81 z"
             inkscape:connector-curvature="0"
             style="fill:#000000;stroke-width:0" /><path
             id="path32270"
             d="m 526.84,394.25 0,0.02 0,0.03 0,0.01 0,0.02 0,0.01 -0.01,0.02 0,0.01 -0.01,0.02 -0.01,0.02 -0.01,0.02 -0.01,0.02 -0.02,0.03 -0.01,0.02 -0.02,0.03 -0.02,0.03 -0.03,0.03 -0.02,0.03 -0.03,0.04 -0.02,0.02 -0.01,0.02 -0.02,0.02 -0.02,0.02 -0.02,0.02 -0.02,0.03 -0.02,0.02 -0.02,0.02 -0.02,0.03 -0.03,0.02 -0.02,0.03 -0.03,0.03 -0.03,0.03 -0.02,0.03 -0.03,0.03 -0.03,0.03 -0.03,0.03 -0.03,0.03 -0.04,0.04 -0.03,0.03 -0.04,0.04 -0.03,0.03 -0.04,0.04 -0.04,0.04 c -6.22,6.28 -7.81,15.69 -7.81,23.31 0,8.67 1.89,17.35 8.01,23.56 0.64,0.61 0.64,0.71 0.64,0.86 0,0.35 -0.18,0.49 -0.48,0.49 -0.5,0 -4.98,-3.38 -7.92,-9.7 -2.55,-5.49 -3.14,-11.02 -3.14,-15.21 0,-3.89 0.54,-9.9 3.28,-15.54 2.98,-6.13 7.28,-9.36 7.78,-9.36 0.3,0 0.48,0.14 0.48,0.5 z"
             inkscape:connector-curvature="0"
             style="fill:#000000;stroke-width:0" /><path
             id="path32272"
             d="m 552.19,427.67 0,0.02 0,0.02 0,0.02 -0.01,0.02 0,0.02 0,0.02 -0.01,0.02 -0.01,0.02 0,0.02 -0.01,0.02 -0.01,0.02 -0.01,0.03 -0.01,0.02 -0.02,0.02 -0.01,0.02 -0.01,0.01 -0.02,0.02 -0.02,0.02 -0.01,0.02 -0.02,0.01 -0.02,0.02 -0.02,0.01 -0.03,0.02 -0.02,0.01 -0.02,0.01 -0.03,0.01 -0.03,0.01 -0.02,0 -0.03,0.01 -0.03,0 -0.04,0.01 -0.01,0 -0.02,0 c -0.54,0 -2.53,-1.99 -3.37,-3.44 -1.11,2.69 -3.05,3.48 -4.64,3.48 v -1.09 c 3.23,0 3.93,-4.03 3.93,-4.37 0,-0.32 -2.73,-11.22 -2.89,-11.43 -0.75,-1.39 -3.53,-4.57 -6.32,-4.57 h 0 c -2.99,0 -3.19,3.84 -3.19,4.68 0,2.39 1.44,7.82 2.29,9.91 1.53,3.69 4.13,5.78 6.18,5.78 v 1.09 c -5.88,0 -12,-7.37 -12,-14.59 0,-4.87 2.93,-7.97 6.56,-7.97 2.16,0 4.09,1.19 5.89,2.99 -0.45,-1.74 -2.1,-8.47 -2.25,-8.93 -0.39,-1.39 -0.8,-1.59 -3.58,-1.64 -0.65,0 -1.15,0 -1.15,-1 0,-0.04 0,-0.54 0.65,-0.54 1.6,0 3.33,0.15 4.98,0.15 1.69,0 3.49,-0.15 5.13,-0.15 0.25,0 0.89,0 0.89,1 0,0.54 -0.48,0.54 -1.28,0.54 -2.41,0 -2.41,0.36 -2.41,0.8 0,0.36 0.11,0.66 0.21,1.09 z"
             inkscape:connector-curvature="0"
             style="fill:#000000;stroke-width:0" /><path
             id="path32274"
             d="m 568.07,418.65 -0.01,0.37 0,0.39 -0.01,0.39 -0.01,0.41 -0.04,0.84 -0.06,0.88 -0.08,0.92 -0.11,0.95 -0.14,0.97 -0.16,1.01 -0.19,1.02 -0.23,1.03 -0.27,1.05 -0.31,1.06 -0.35,1.07 -0.39,1.07 -0.21,0.53 -0.23,0.53 -0.23,0.53 -0.26,0.53 c -2.98,6.12 -7.26,9.36 -7.76,9.36 -0.3,0 -0.5,-0.19 -0.5,-0.49 0,-0.15 0,-0.25 0.94,-1.15 4.89,-4.92 7.73,-12.85 7.73,-23.27 0,-8.51 -1.84,-17.28 -8.03,-23.56 -0.64,-0.59 -0.64,-0.7 -0.64,-0.84 0,-0.3 0.2,-0.5 0.5,-0.5 0.5,0 4.97,3.39 7.92,9.71 2.53,5.47 3.13,11 3.13,15.19 z"
             inkscape:connector-curvature="0"
             style="fill:#000000;stroke-width:0" /></g></g><g
         transform="matrix(8,0,0,-8,2199.9494,2579.2529)"
         id="g32614"><g
           style="font-style:normal;font-variant:normal;font-weight:normal;font-stretch:normal;letter-spacing:normal;word-spacing:normal;text-anchor:start;fill:none;stroke:#000000;stroke-linecap:butt;stroke-linejoin:miter;stroke-miterlimit:10.43299961;stroke-opacity:1;stroke-dasharray:none;stroke-dashoffset:0"
           id="g32616"
           transform="matrix(0.29107143,0,0,-0.29107143,-50.9375,311.25)"
           xml:space="preserve"
           stroke-miterlimit="10.433"
           font-style="normal"
           font-variant="normal"
           font-weight="normal"
           font-stretch="normal"
           font-size-adjust="none"
           letter-spacing="normal"
           word-spacing="normal"><path
             style="fill:#000000;stroke-width:0"
             inkscape:connector-curvature="0"
             d="m 479.54,439.48 0,0.02 0,0.02 0.01,0.04 0.02,0.04 0.01,0.05 0.01,0.04 0.01,0.05 0.01,0.05 0.01,0.05 0.01,0.05 0.01,0.05 0.01,0.05 0.01,0.05 0.01,0.05 0,0.04 0,0.05 0.01,0.03 0,0.02 c 0,0.5 -0.35,0.55 -0.6,0.55 -0.5,0 -0.54,-0.11 -0.75,-1 l -8.26,-32.94 c -3.78,0.45 -5.68,2.3 -5.68,5.59 0,0.99 0,2.28 2.69,9.27 0.21,0.59 0.55,1.44 0.55,2.44 0,2.23 -1.59,4.07 -4.09,4.07 -4.74,0 -6.58,-7.21 -6.58,-7.67 0,-0.5 0.5,-0.5 0.61,-0.5 0.5,0 0.54,0.11 0.79,0.91 1.35,4.73 3.33,6.17 5.03,6.17 0.4,0 1.25,0 1.25,-1.59 0,-1.3 -0.5,-2.53 -1.15,-4.28 -2.39,-6.29 -2.39,-7.58 -2.39,-8.43 0,-4.73 3.89,-6.78 8.67,-7.07 -0.41,-1.79 -0.41,-1.89 -1.09,-4.54 -0.16,-0.54 -1.16,-4.57 -1.16,-4.73 0,-0.05 0,-0.5 0.61,-0.5 0.09,0 0.34,0 0.44,0.2 0.15,0.1 0.45,1.35 0.61,2.05 l 1.89,7.42 c 1.84,0 6.22,0 10.9,5.33 2.05,2.3 3.1,4.48 3.64,5.98 0.46,1.24 1.55,5.58 1.55,7.77 0,2.8 -1.34,3.48 -2.2,3.48 -1.24,0 -2.49,-1.29 -2.49,-2.39 0,-0.64 0.3,-0.93 0.75,-1.34 0.55,-0.55 1.8,-1.84 1.8,-4.23 0,-3.19 -2.59,-7.27 -4.34,-9.07 -4.38,-4.43 -7.57,-4.43 -9.36,-4.43 z"
             id="path32618" /><path
             style="fill:#000000;stroke-width:0"
             inkscape:connector-curvature="0"
             d="m 499.59,420.92 0,0.04 0,0.04 0,0.05 0,0.04 0,0.03 0,0.04 0,0.04 0,0.03 0,0.04 0,0.03 -0.01,0.03 0,0.03 0,0.03 0,0.03 -0.01,0.03 0,0.02 -0.01,0.03 0,0.02 -0.01,0.03 0,0.02 -0.01,0.04 -0.02,0.04 -0.01,0.03 -0.02,0.03 -0.03,0.03 -0.02,0.03 -0.03,0.02 -0.03,0.02 -0.03,0.02 -0.04,0.01 -0.04,0.01 -0.04,0.02 -0.03,0 -0.02,0 -0.03,0.01 -0.02,0 -0.03,0.01 -0.03,0 -0.03,0 -0.03,0 -0.03,0 -0.04,0.01 -0.03,0 -0.04,0 -0.03,0 -0.04,0 -0.04,0 -0.04,0 -0.04,0 -0.04,0 -0.05,0 -0.04,0 c -2.24,-2.2 -5.39,-2.23 -6.83,-2.23 v -1.25 c 0.84,0 3.14,0 5.05,0.97 v -17.77 c 0,-1.16 0,-1.61 -3.49,-1.61 h -1.31 v -1.25 c 0.62,0.03 4.91,0.14 6.2,0.14 1.08,0 5.47,-0.11 6.24,-0.14 v 1.25 h -1.33 c -3.49,0 -3.49,0.45 -3.49,1.61 z"
             id="path32620" /><path
             style="fill:#000000;stroke-width:0"
             inkscape:connector-curvature="0"
             d="m 526.84,394.25 0,0.02 0,0.03 0,0.01 0,0.02 0,0.01 -0.01,0.02 0,0.01 -0.01,0.02 -0.01,0.02 -0.01,0.02 -0.01,0.02 -0.02,0.03 -0.01,0.02 -0.02,0.03 -0.02,0.03 -0.03,0.03 -0.02,0.03 -0.03,0.04 -0.02,0.02 -0.01,0.02 -0.02,0.02 -0.02,0.02 -0.02,0.02 -0.02,0.03 -0.02,0.02 -0.02,0.02 -0.02,0.03 -0.03,0.02 -0.02,0.03 -0.03,0.03 -0.03,0.03 -0.02,0.03 -0.03,0.03 -0.03,0.03 -0.03,0.03 -0.03,0.03 -0.04,0.04 -0.03,0.03 -0.04,0.04 -0.03,0.03 -0.04,0.04 -0.04,0.04 c -6.22,6.28 -7.81,15.69 -7.81,23.31 0,8.67 1.89,17.35 8.01,23.56 0.64,0.61 0.64,0.71 0.64,0.86 0,0.35 -0.18,0.49 -0.48,0.49 -0.5,0 -4.98,-3.38 -7.92,-9.7 -2.55,-5.49 -3.14,-11.02 -3.14,-15.21 0,-3.89 0.54,-9.9 3.28,-15.54 2.98,-6.13 7.28,-9.36 7.78,-9.36 0.3,0 0.48,0.14 0.48,0.5 z"
             id="path32622" /><path
             style="fill:#000000;stroke-width:0"
             inkscape:connector-curvature="0"
             d="m 552.19,427.67 0,0.02 0,0.02 0,0.02 -0.01,0.02 0,0.02 0,0.02 -0.01,0.02 -0.01,0.02 0,0.02 -0.01,0.02 -0.01,0.02 -0.01,0.03 -0.01,0.02 -0.02,0.02 -0.01,0.02 -0.01,0.01 -0.02,0.02 -0.02,0.02 -0.01,0.02 -0.02,0.01 -0.02,0.02 -0.02,0.01 -0.03,0.02 -0.02,0.01 -0.02,0.01 -0.03,0.01 -0.03,0.01 -0.02,0 -0.03,0.01 -0.03,0 -0.04,0.01 -0.01,0 -0.02,0 c -0.54,0 -2.53,-1.99 -3.37,-3.44 -1.11,2.69 -3.05,3.48 -4.64,3.48 v -1.09 c 3.23,0 3.93,-4.03 3.93,-4.37 0,-0.32 -2.73,-11.22 -2.89,-11.43 -0.75,-1.39 -3.53,-4.57 -6.32,-4.57 h 0 c -2.99,0 -3.19,3.84 -3.19,4.68 0,2.39 1.44,7.82 2.29,9.91 1.53,3.69 4.13,5.78 6.18,5.78 v 1.09 c -5.88,0 -12,-7.37 -12,-14.59 0,-4.87 2.93,-7.97 6.56,-7.97 2.16,0 4.09,1.19 5.89,2.99 -0.45,-1.74 -2.1,-8.47 -2.25,-8.93 -0.39,-1.39 -0.8,-1.59 -3.58,-1.64 -0.65,0 -1.15,0 -1.15,-1 0,-0.04 0,-0.54 0.65,-0.54 1.6,0 3.33,0.15 4.98,0.15 1.69,0 3.49,-0.15 5.13,-0.15 0.25,0 0.89,0 0.89,1 0,0.54 -0.48,0.54 -1.28,0.54 -2.41,0 -2.41,0.36 -2.41,0.8 0,0.36 0.11,0.66 0.21,1.09 z"
             id="path32624" /><path
             style="fill:#000000;stroke-width:0"
             inkscape:connector-curvature="0"
             d="m 568.07,418.65 -0.01,0.37 0,0.39 -0.01,0.39 -0.01,0.41 -0.04,0.84 -0.06,0.88 -0.08,0.92 -0.11,0.95 -0.14,0.97 -0.16,1.01 -0.19,1.02 -0.23,1.03 -0.27,1.05 -0.31,1.06 -0.35,1.07 -0.39,1.07 -0.21,0.53 -0.23,0.53 -0.23,0.53 -0.26,0.53 c -2.98,6.12 -7.26,9.36 -7.76,9.36 -0.3,0 -0.5,-0.19 -0.5,-0.49 0,-0.15 0,-0.25 0.94,-1.15 4.89,-4.92 7.73,-12.85 7.73,-23.27 0,-8.51 -1.84,-17.28 -8.03,-23.56 -0.64,-0.59 -0.64,-0.7 -0.64,-0.84 0,-0.3 0.2,-0.5 0.5,-0.5 0.5,0 4.97,3.39 7.92,9.71 2.53,5.47 3.13,11 3.13,15.19 z"
             id="path32626" /></g></g></g></g></svg>